<?xml version="1.0" encoding="UTF-8" standalone="no"?>
<svg
   xmlns:dc="http://purl.org/dc/elements/1.1/"
   xmlns:cc="http://creativecommons.org/ns#"
   xmlns:rdf="http://www.w3.org/1999/02/22-rdf-syntax-ns#"
   xmlns:svg="http://www.w3.org/2000/svg"
   xmlns="http://www.w3.org/2000/svg"
   xmlns:xlink="http://www.w3.org/1999/xlink"
   xmlns:sodipodi="http://sodipodi.sourceforge.net/DTD/sodipodi-0.dtd"
   xmlns:inkscape="http://www.inkscape.org/namespaces/inkscape"
   width="210mm"
   height="297mm"
   viewBox="0 0 210 297"
   version="1.1"
   id="svg8"
   inkscape:version="1.0.2-2 (e86c870879, 2021-01-15)"
   sodipodi:docname="lostphoneUI.svg">
  <defs
     id="defs2">
    <marker
       style="overflow:visible"
       id="Tail"
       refX="0.0"
       refY="0.0"
       orient="auto"
       inkscape:stockid="Tail"
       inkscape:isstock="true">
      <g
         transform="scale(-1.2)"
         id="g3231"
         style="stroke:#000000;stroke-opacity:1;fill:#000000;fill-opacity:1">
        <path
           style="fill:#000000;fill-rule:evenodd;stroke:#000000;stroke-width:0.8;stroke-linecap:round;stroke-opacity:1;fill-opacity:1"
           d="M -3.8048674,-3.9585227 L 0.54352094,0"
           id="path3219" />
        <path
           style="fill:#000000;fill-rule:evenodd;stroke:#000000;stroke-width:0.8;stroke-linecap:round;stroke-opacity:1;fill-opacity:1"
           d="M -1.2866832,-3.9585227 L 3.0617053,0"
           id="path3221" />
        <path
           style="fill:#000000;fill-rule:evenodd;stroke:#000000;stroke-width:0.8;stroke-linecap:round;stroke-opacity:1;fill-opacity:1"
           d="M 1.3053582,-3.9585227 L 5.6537466,0"
           id="path3223" />
        <path
           style="fill:#000000;fill-rule:evenodd;stroke:#000000;stroke-width:0.8;stroke-linecap:round;stroke-opacity:1;fill-opacity:1"
           d="M -3.8048674,4.1775838 L 0.54352094,0.21974226"
           id="path3225" />
        <path
           style="fill:#000000;fill-rule:evenodd;stroke:#000000;stroke-width:0.8;stroke-linecap:round;stroke-opacity:1;fill-opacity:1"
           d="M -1.2866832,4.1775838 L 3.0617053,0.21974226"
           id="path3227" />
        <path
           style="fill:#000000;fill-rule:evenodd;stroke:#000000;stroke-width:0.8;stroke-linecap:round;stroke-opacity:1;fill-opacity:1"
           d="M 1.3053582,4.1775838 L 5.6537466,0.21974226"
           id="path3229" />
      </g>
    </marker>
    <marker
       style="overflow:visible"
       id="TriangleOutL"
       refX="0.0"
       refY="0.0"
       orient="auto"
       inkscape:stockid="TriangleOutL"
       inkscape:isstock="true">
      <path
         transform="scale(0.8)"
         style="fill-rule:evenodd;stroke:#000000;stroke-width:1pt;stroke-opacity:1;fill:#000000;fill-opacity:1"
         d="M 5.77,0.0 L -2.88,5.0 L -2.88,-5.0 L 5.77,0.0 z "
         id="path3325" />
    </marker>
    <marker
       style="overflow:visible;"
       id="marker3487"
       refX="0.0"
       refY="0.0"
       orient="auto"
       inkscape:stockid="Arrow1Lend"
       inkscape:isstock="true">
      <path
         transform="scale(0.8) rotate(180) translate(12.5,0)"
         style="fill-rule:evenodd;stroke:#000000;stroke-width:1pt;stroke-opacity:1;fill:#000000;fill-opacity:1"
         d="M 0.0,0.0 L 5.0,-5.0 L -12.5,0.0 L 5.0,5.0 L 0.0,0.0 z "
         id="path3485" />
    </marker>
    <marker
       style="overflow:visible;"
       id="Arrow1Lend"
       refX="0.0"
       refY="0.0"
       orient="auto"
       inkscape:stockid="Arrow1Lend"
       inkscape:isstock="true">
      <path
         transform="scale(0.8) rotate(180) translate(12.5,0)"
         style="fill-rule:evenodd;stroke:#000000;stroke-width:1pt;stroke-opacity:1;fill:#000000;fill-opacity:1"
         d="M 0.0,0.0 L 5.0,-5.0 L -12.5,0.0 L 5.0,5.0 L 0.0,0.0 z "
         id="path3186" />
    </marker>
    <rect
       x="-115.23007"
       y="-118.06214"
       width="43.366155"
       height="73.191449"
       id="rect3103" />
    <rect
       id="rect1355"
       height="63.423057"
       width="68.100274"
       y="-142.93574"
       x="-113.00155" />
    <rect
       id="rect1206"
       height="26.75368"
       width="30.495452"
       y="-178.66967"
       x="-282.87806" />
    <rect
       id="rect1105"
       height="32.740516"
       width="63.423057"
       y="-170.81195"
       x="-186.15322" />
    <linearGradient
       inkscape:collect="always"
       id="linearGradient1395">
      <stop
         style="stop-color:#ffffff;stop-opacity:1;"
         offset="0"
         id="stop1391" />
      <stop
         style="stop-color:#ffffff;stop-opacity:0;"
         offset="1"
         id="stop1393" />
    </linearGradient>
    <rect
       x="-114.31117"
       y="-137.69726"
       width="19.64431"
       height="22.263551"
       id="rect1099" />
    <rect
       id="rect1639"
       height="14.816667"
       width="61.9125"
       y="-132.02708"
       x="-362.61146" />
    <rect
       id="rect1633"
       height="11.318865"
       width="45.556091"
       y="-126.28485"
       x="-343.4948" />
    <rect
       id="rect1625"
       height="14.686461"
       width="38.259633"
       y="-100.93434"
       x="-352.38151" />
    <rect
       id="rect1085"
       height="20.486209"
       width="40.036975"
       y="-63.23597"
       x="-280.82009" />
    <rect
       id="rect937"
       height="10.557146"
       width="50.914845"
       y="-85.793519"
       x="-288.91836" />
    <rect
       id="rect835"
       height="21.922619"
       width="133.80357"
       y="-151.94643"
       x="-369.66071" />
    <rect
       x="-369.66071"
       y="-151.94643"
       width="133.80357"
       height="21.922619"
       id="rect835-6" />
    <rect
       x="-369.66071"
       y="-151.94643"
       width="133.80357"
       height="21.922619"
       id="rect850" />
    <rect
       id="rect835-6-5"
       height="21.922619"
       width="133.80357"
       y="-151.94643"
       x="-369.66071" />
    <rect
       id="rect913"
       height="21.922619"
       width="133.80357"
       y="-151.94643"
       x="-369.66071" />
    <rect
       x="-288.91837"
       y="-85.793518"
       width="50.914845"
       height="10.557146"
       id="rect937-3" />
    <rect
       x="-288.91837"
       y="-85.793518"
       width="50.914845"
       height="10.557146"
       id="rect967" />
    <rect
       id="rect937-3-6"
       height="21.114292"
       width="56.39387"
       y="-85.793518"
       x="-288.91837" />
    <rect
       id="rect1006"
       height="10.557146"
       width="50.914845"
       y="-85.793518"
       x="-288.91837" />
    <rect
       x="-280.8201"
       y="-63.23597"
       width="40.036976"
       height="20.48621"
       id="rect1085-3" />
    <rect
       x="-280.8201"
       y="-63.23597"
       width="40.036976"
       height="20.48621"
       id="rect1102" />
    <rect
       x="-280.8201"
       y="-63.23597"
       width="47.372689"
       height="5.7756288"
       id="rect1085-6" />
    <rect
       x="-280.8201"
       y="-63.23597"
       width="40.036976"
       height="20.48621"
       id="rect1142" />
    <rect
       x="-280.8201"
       y="-63.23597"
       width="28.924476"
       height="5.6695433"
       id="rect1085-8" />
    <rect
       x="-280.8201"
       y="-63.23597"
       width="40.036976"
       height="20.48621"
       id="rect1170" />
    <rect
       id="rect1085-3-8"
       height="20.48621"
       width="40.036976"
       y="-63.23597"
       x="-280.8201" />
    <rect
       id="rect1173"
       height="20.48621"
       width="40.036976"
       y="-63.23597"
       x="-280.8201" />
    <rect
       id="rect1085-6-5"
       height="5.7756286"
       width="47.372688"
       y="-63.23597"
       x="-280.8201" />
    <rect
       id="rect1240"
       height="5.7756286"
       width="47.372688"
       y="-63.23597"
       x="-280.8201" />
    <rect
       x="-280.8201"
       y="-63.23597"
       width="18.473434"
       height="4.8757933"
       id="rect1085-3-8-7" />
    <rect
       x="-280.8201"
       y="-63.23597"
       width="40.036976"
       height="20.48621"
       id="rect1269" />
    <rect
       id="rect1085-3-8-7-4"
       height="4.8643061"
       width="16.370259"
       y="-63.23597"
       x="-280.8201" />
    <rect
       id="rect1328"
       height="20.48621"
       width="40.036976"
       y="-63.23597"
       x="-280.8201" />
    <rect
       x="-280.8201"
       y="-63.23597"
       width="16.370258"
       height="4.864306"
       id="rect1085-3-8-7-4-4" />
    <rect
       x="-280.8201"
       y="-63.23597"
       width="16.370258"
       height="4.864306"
       id="rect1373" />
    <rect
       id="rect1085-3-8-7-9"
       height="4.8757935"
       width="18.473434"
       y="-63.23597"
       x="-280.8201" />
    <rect
       id="rect1418"
       height="4.8757935"
       width="18.473434"
       y="-63.23597"
       x="-280.8201" />
    <rect
       x="-280.8201"
       y="-63.23597"
       width="18.473434"
       height="4.8757935"
       id="rect1085-3-8-7-9-4" />
    <rect
       x="-280.8201"
       y="-63.23597"
       width="18.473434"
       height="4.8757935"
       id="rect1450" />
    <rect
       id="rect1085-3-8-7-9-4-8"
       height="4.8757935"
       width="18.473434"
       y="-63.23597"
       x="-280.8201" />
    <rect
       id="rect1482"
       height="4.8757935"
       width="18.473434"
       y="-63.23597"
       x="-280.8201" />
    <rect
       x="-280.8201"
       y="-63.23597"
       width="18.473434"
       height="4.8757935"
       id="rect1085-3-8-7-9-4-8-8" />
    <rect
       x="-280.8201"
       y="-63.23597"
       width="18.473434"
       height="4.8757935"
       id="rect1515" />
    <rect
       id="rect1085-3-8-7-9-4-8-8-5"
       height="4.8757935"
       width="18.473434"
       y="-63.23597"
       x="-280.8201" />
    <rect
       id="rect1548"
       height="4.8757935"
       width="18.473434"
       y="-63.23597"
       x="-280.8201" />
    <rect
       x="-280.8201"
       y="-63.23597"
       width="47.372688"
       height="5.7756286"
       id="rect1085-6-5-2" />
    <rect
       x="-280.8201"
       y="-63.23597"
       width="47.372688"
       height="5.7756286"
       id="rect1581" />
    <rect
       x="-280.8201"
       y="-63.23597"
       width="29.746151"
       height="5.455181"
       id="rect1085-3-8-7-9-2" />
    <rect
       x="-280.8201"
       y="-63.23597"
       width="18.473434"
       height="4.8757935"
       id="rect1076" />
    <linearGradient
       inkscape:collect="always"
       xlink:href="#linearGradient1395"
       id="linearGradient1397"
       x1="-808.18109"
       y1="-816.34631"
       x2="-808.18109"
       y2="-604.21423"
       gradientUnits="userSpaceOnUse" />
    <linearGradient
       gradientTransform="matrix(0.26458333,0,0,0.26458333,2.1665077,-9.8122106)"
       y2="-604.21423"
       x2="-808.18109"
       y1="-816.34631"
       x1="-808.18109"
       gradientUnits="userSpaceOnUse"
       id="linearGradient1172"
       xlink:href="#linearGradient1395"
       inkscape:collect="always" />
    <linearGradient
       gradientTransform="matrix(0.26458333,0,0,0.26458333,67.460452,64.271126)"
       y2="-604.21423"
       x2="-808.18109"
       y1="-816.34631"
       x1="-808.18109"
       gradientUnits="userSpaceOnUse"
       id="linearGradient1202"
       xlink:href="#linearGradient1395"
       inkscape:collect="always" />
    <rect
       x="-282.87806"
       y="-178.66967"
       width="23.466456"
       height="6.0466378"
       id="rect1246" />
    <rect
       x="-282.87806"
       y="-178.66967"
       width="13.020713"
       height="4.2381504"
       id="rect1254" />
    <rect
       id="rect1270"
       height="6.108602"
       width="14.997305"
       y="-178.66967"
       x="-282.87806" />
    <rect
       x="-282.87806"
       y="-178.66967"
       width="30.495452"
       height="26.75368"
       id="rect1345" />
    <filter
       inkscape:collect="always"
       style="color-interpolation-filters:sRGB"
       id="filter3161"
       x="-3.3054613e-05"
       width="1.0000661"
       y="-2.7462189e-05"
       height="1.0000549">
      <feGaussianBlur
         inkscape:collect="always"
         stdDeviation="0.0021192834"
         id="feGaussianBlur3163" />
    </filter>
    <rect
       x="-115.23007"
       y="-118.06214"
       width="43.366155"
       height="73.191449"
       id="rect3743" />
    <rect
       x="-282.87806"
       y="-178.66967"
       width="30.495452"
       height="26.75368"
       id="rect3745" />
    <linearGradient
       inkscape:collect="always"
       xlink:href="#linearGradient1395"
       id="linearGradient3747"
       gradientUnits="userSpaceOnUse"
       gradientTransform="matrix(0.26458333,0,0,0.26458333,102.50739,-64.942314)"
       x1="-808.18109"
       y1="-816.34631"
       x2="-808.18109"
       y2="-604.21423" />
  </defs>
  <sodipodi:namedview
     inkscape:guide-bbox="true"
     showguides="true"
     inkscape:window-maximized="1"
     inkscape:window-y="-8"
     inkscape:window-x="-8"
     inkscape:window-height="1027"
     inkscape:window-width="1920"
     showborder="false"
     inkscape:pagecheckerboard="true"
     showgrid="false"
     inkscape:document-rotation="0"
     inkscape:current-layer="layer3"
     inkscape:document-units="px"
     inkscape:cy="-512.54783"
     inkscape:cx="-847.58049"
     inkscape:zoom="0.5"
     inkscape:pageshadow="2"
     inkscape:pageopacity="0.0"
     borderopacity="1.0"
     bordercolor="#666666"
     pagecolor="#ffffff"
     id="base"
     inkscape:connector-spacing="5" />
  <metadata
     id="metadata5">
    <rdf:RDF>
      <cc:Work
         rdf:about="">
        <dc:format>image/svg+xml</dc:format>
        <dc:type
           rdf:resource="http://purl.org/dc/dcmitype/StillImage" />
        <dc:title />
      </cc:Work>
    </rdf:RDF>
  </metadata>
  <g
     style="display:none"
     inkscape:groupmode="layer"
     id="layer2"
     inkscape:label="Phone">
    <g
       sodipodi:insensitive="true"
       id="g1511"
       inkscape:label="phone layout">
      <path
         d="m -243.21484,-212.44727 c -5.1229,0 -9.26954,4.14663 -9.26954,9.26954 v 92.58984 c 0,5.1229 4.14682,9.26758 9.26954,9.26758 h 35.70312 c 5.12272,0 9.26953,-4.14468 9.26953,-9.26758 v -92.58984 c 0,-5.12291 -4.14663,-9.26954 -9.26953,-9.26954 z"
         style="opacity:1;fill:#333333;stroke-width:0.430826;stroke-linecap:round;stroke-linejoin:round"
         id="path1113" />
      <path
         d="m -243.21526,-211.78436 h 35.70451 c 4.76777,0 8.60608,3.83831 8.60608,8.60608 v 92.58993 c 0,4.76777 -3.83831,8.60608 -8.60608,8.60608 h -35.70451 c -4.76776,0 -8.60607,-3.83831 -8.60607,-8.60608 v -92.58993 c 0,-4.76777 3.83831,-8.60608 8.60607,-8.60608 z"
         style="opacity:1;fill:#000000;stroke-width:0.430826;stroke-linecap:round;stroke-linejoin:round"
         id="rect1104" />
      <path
         transform="scale(0.26458333)"
         d="m -886.66992,-800.44531 134.9043,180.33008 v -147.80274 c 0,-18.01992 -14.50743,-32.52734 -32.52735,-32.52734 z"
         style="fill:url(#linearGradient1397);fill-opacity:1;stroke:none;stroke-width:0.999999px;stroke-linecap:butt;stroke-linejoin:miter;stroke-opacity:1"
         id="path1386" />
      <path
         d="m -249.17578,-199.56445 a 0.34769376,0.34769376 0 0 0 -0.34766,0.34765 v 84.66602 a 0.34769376,0.34769376 0 0 0 0.34766,0.34766 h 47.625 a 0.34769376,0.34769376 0 0 0 0.34766,-0.34766 v -84.66602 a 0.34769376,0.34769376 0 0 0 -0.34766,-0.34765 z"
         style="opacity:1;fill:#1a1a1a;stroke-width:0.896533;stroke-linecap:round;stroke-linejoin:round"
         id="path1109" />
      <path
         d="m -249.17551,-199.21664 h 47.625 v 84.66666 h -47.625 z"
         style="opacity:1;fill:#b3b3b3;stroke-width:0.896533;stroke-linecap:round;stroke-linejoin:round"
         id="rect1106" />
      <path
         transform="scale(0.26458333)"
         d="m -851.76562,-427.25 a 16.5,16.5 0 0 0 -16.5,16.5 16.5,16.5 0 0 0 16.5,16.5 16.5,16.5 0 0 0 16.5,-16.5 16.5,16.5 0 0 0 -16.5,-16.5 z m -0.11329,1.5 a 15,15 0 0 1 0.11329,0 15,15 0 0 1 15,15 15,15 0 0 1 -15,15 15,15 0 0 1 -15,-15 15,15 0 0 1 14.88671,-15 z"
         style="opacity:1;fill:#333333;stroke-width:2.75;stroke-linecap:round;stroke-linejoin:round"
         id="path1116" />
      <rect
         ry="0.66145831"
         y="-205.70398"
         x="-229.33176"
         height="1.3229166"
         width="7.9375"
         id="rect1120"
         style="opacity:1;fill:#000000;stroke-width:0.653563;stroke-linecap:round;stroke-linejoin:round" />
      <circle
         r="0.66145831"
         cy="-208.22708"
         cx="-225.36301"
         id="path1122"
         style="opacity:1;fill:#000000;stroke-width:0.453572;stroke-linecap:round;stroke-linejoin:round" />
      <circle
         r="1.0583333"
         style="opacity:0.588235;fill:#666666;stroke-width:0.725714;stroke-linecap:round;stroke-linejoin:round"
         id="circle1124"
         cx="-232.70518"
         cy="-205.04253" />
      <path
         transform="scale(0.26458333)"
         d="m -866.15234,-414.99609 a 15,15 0 0 0 -0.61328,4.24609 15,15 0 0 0 15,15 15,15 0 0 0 15,-15 15,15 0 0 0 -0.61329,-4.24609 26.5,26.5 0 0 1 -14.38671,4.24609 26.5,26.5 0 0 1 -14.38672,-4.24609 z"
         style="opacity:0.303922;fill:#e6e6e6;stroke-width:2.5;stroke-linecap:round;stroke-linejoin:round"
         id="circle1372" />
      <path
         transform="scale(0.26458333)"
         d="m -866.63867,-775.71484 c -0.075,0.23829 -0.12695,0.48825 -0.12695,0.75195 -10e-6,1.38501 1.11499,2.5 2.5,2.5 h 25 c 1.38497,0 2.5,-1.11499 2.5,-2.5 0,-0.2637 -0.052,-0.51366 -0.12696,-0.75195 -0.31868,1.01368 -1.25146,1.75 -2.37304,1.75 h -25 c -1.12162,0 -2.05437,-0.73632 -2.37305,-1.75 z"
         style="opacity:1;fill:#666666;stroke-width:2.47016;stroke-linecap:round;stroke-linejoin:round"
         id="rect1435" />
      <path
         transform="scale(0.26458333)"
         d="m -854.2207,-787.46875 a 2.4999999,2.4999999 0 0 0 -0.0449,0.46875 2.4999999,2.4999999 0 0 0 2.5,2.5 2.4999999,2.4999999 0 0 0 2.5,-2.5 2.4999999,2.4999999 0 0 0 -0.0449,-0.4668 2.4999999,2.4999999 0 0 1 -2.45507,2.0293 2.4999999,2.4999999 0 0 1 -2.45508,-2.03125 z"
         style="opacity:1;fill:#666666;stroke-width:1.71429;stroke-linecap:round;stroke-linejoin:round"
         id="circle1482" />
      <path
         transform="scale(0.26458333)"
         d="m -883.39453,-775.9375 a 3.9999999,3.9999999 0 0 0 -0.12109,0.97266 3.9999999,3.9999999 0 0 0 4,4.00195 3.9999999,3.9999999 0 0 0 4,-4.00195 3.9999999,3.9999999 0 0 0 -0.1211,-0.97071 3.9999999,3.9999999 0 0 1 -3.8789,3.02735 3.9999999,3.9999999 0 0 1 -3.87891,-3.0293 z"
         style="opacity:0.588235;fill:#cccccc;stroke-width:2.74286;stroke-linecap:round;stroke-linejoin:round"
         id="circle1491" />
    </g>
  </g>
  <g
     inkscape:label="Scenes"
     id="layer3"
     inkscape:groupmode="layer"
     style="opacity:0.997;filter:url(#filter3161)">
    <g
       id="g1240">
      <path
         id="path1113-7"
         style="fill:#333333;stroke-width:0.430826;stroke-linecap:round;stroke-linejoin:round"
         d="m -241.04833,-222.25948 c -5.1229,0 -9.26954,4.14663 -9.26954,9.26954 v 92.58984 c 0,5.1229 4.14682,9.26758 9.26954,9.26758 h 35.70312 c 5.12272,0 9.26953,-4.14468 9.26953,-9.26758 v -92.58984 c 0,-5.12291 -4.14663,-9.26954 -9.26953,-9.26954 z" />
      <path
         id="rect1104-4"
         style="fill:#000000;stroke-width:0.430826;stroke-linecap:round;stroke-linejoin:round"
         d="m -241.04875,-221.59657 h 35.70451 c 4.76777,0 8.60608,3.83831 8.60608,8.60608 v 92.58993 c 0,4.76777 -3.83831,8.60608 -8.60608,8.60608 h -35.70451 c -4.76776,0 -8.60607,-3.83831 -8.60607,-8.60608 v -92.58993 c 0,-4.76777 3.83831,-8.60608 8.60607,-8.60608 z" />
      <path
         id="path1386-9"
         style="fill:url(#linearGradient1172);fill-opacity:1;stroke:none;stroke-width:0.264583px;stroke-linecap:butt;stroke-linejoin:miter;stroke-opacity:1"
         d="m -232.43157,-221.5967 35.69343,47.71234 v -39.10614 c 0,-4.76777 -3.83843,-8.6062 -8.6062,-8.6062 z" />
      <path
         id="path1109-0"
         style="fill:#1a1a1a;stroke-width:0.896533;stroke-linecap:round;stroke-linejoin:round"
         d="m -247.00927,-209.37666 a 0.34769376,0.34769376 0 0 0 -0.34766,0.34765 v 84.66602 a 0.34769376,0.34769376 0 0 0 0.34766,0.34766 h 47.625 a 0.34769376,0.34769376 0 0 0 0.34766,-0.34766 v -84.66602 a 0.34769376,0.34769376 0 0 0 -0.34766,-0.34765 z" />
      <path
         id="rect1106-9"
         style="fill:#1a1a1a;stroke-width:0.896533;stroke-linecap:round;stroke-linejoin:round"
         d="m -247.009,-209.02885 h 47.625 v 84.66666 h -47.625 z" />
      <path
         id="path1116-6"
         style="fill:#333333;stroke-width:0.727604;stroke-linecap:round;stroke-linejoin:round"
         d="m -223.19648,-122.85544 a 4.3656249,4.3656249 0 0 0 -4.36562,4.36563 4.3656249,4.3656249 0 0 0 4.36562,4.36562 4.3656249,4.3656249 0 0 0 4.36563,-4.36562 4.3656249,4.3656249 0 0 0 -4.36563,-4.36563 z m -0.03,0.39688 a 3.96875,3.96875 0 0 1 0.03,0 3.96875,3.96875 0 0 1 3.96875,3.96875 3.96875,3.96875 0 0 1 -3.96875,3.96875 3.96875,3.96875 0 0 1 -3.96875,-3.96875 3.96875,3.96875 0 0 1 3.93878,-3.96875 z" />
      <rect
         style="fill:#000000;stroke-width:0.653563;stroke-linecap:round;stroke-linejoin:round"
         id="rect1120-1"
         width="7.9375"
         height="1.3229166"
         x="-227.16525"
         y="-215.51619"
         ry="0.66145831" />
      <circle
         style="fill:#000000;stroke-width:0.453572;stroke-linecap:round;stroke-linejoin:round"
         id="path1122-3"
         cx="-223.1965"
         cy="-218.03929"
         r="0.66145831" />
      <circle
         cy="-214.85474"
         cx="-230.53868"
         id="circle1124-3"
         style="opacity:0.588235;fill:#666666;stroke-width:0.725714;stroke-linecap:round;stroke-linejoin:round"
         r="1.0583333" />
      <path
         id="circle1372-0"
         style="opacity:0.303922;fill:#e6e6e6;stroke-width:0.661458;stroke-linecap:round;stroke-linejoin:round"
         d="m -227.00296,-119.61326 a 3.96875,3.96875 0 0 0 -0.16227,1.12345 3.96875,3.96875 0 0 0 3.96875,3.96875 3.96875,3.96875 0 0 0 3.96875,-3.96875 3.96875,3.96875 0 0 0 -0.16226,-1.12345 7.0114582,7.0114582 0 0 1 -3.80649,1.12345 7.0114582,7.0114582 0 0 1 -3.80648,-1.12345 z" />
      <path
         id="rect1435-9"
         style="fill:#666666;stroke-width:0.653563;stroke-linecap:round;stroke-linejoin:round"
         d="m -227.13164,-215.05343 c -0.0198,0.0631 -0.0336,0.12919 -0.0336,0.19896 0,0.36645 0.29501,0.66146 0.66146,0.66146 h 6.61459 c 0.36644,0 0.66145,-0.29501 0.66145,-0.66146 0,-0.0698 -0.0137,-0.13591 -0.0336,-0.19896 -0.0843,0.26821 -0.33111,0.46302 -0.62786,0.46302 h -6.61459 c -0.29676,0 -0.54355,-0.19481 -0.62787,-0.46302 z" />
      <path
         id="circle1482-9"
         style="fill:#666666;stroke-width:0.453573;stroke-linecap:round;stroke-linejoin:round"
         d="m -223.84605,-218.16331 a 0.6614583,0.6614583 0 0 0 -0.0119,0.12402 0.6614583,0.6614583 0 0 0 0.66146,0.66146 0.6614583,0.6614583 0 0 0 0.66146,-0.66146 0.6614583,0.6614583 0 0 0 -0.0119,-0.12351 0.6614583,0.6614583 0 0 1 -0.64957,0.53692 0.6614583,0.6614583 0 0 1 -0.64958,-0.53743 z" />
      <path
         id="circle1491-0"
         style="opacity:0.588235;fill:#cccccc;stroke-width:0.725715;stroke-linecap:round;stroke-linejoin:round"
         d="m -231.56496,-215.11234 a 1.0583333,1.0583333 0 0 0 -0.032,0.25735 1.0583333,1.0583333 0 0 0 1.05834,1.05885 1.0583333,1.0583333 0 0 0 1.05833,-1.05885 1.0583333,1.0583333 0 0 0 -0.032,-0.25683 1.0583333,1.0583333 0 0 1 -1.02629,0.80098 1.0583333,1.0583333 0 0 1 -1.0263,-0.8015 z" />
    </g>
    <text
       transform="matrix(1.1809904,0,0,1.1809904,92.69419,30.002813)"
       y="0"
       x="9.8319578"
       style="font-style:normal;font-variant:normal;font-weight:normal;font-stretch:normal;font-size:4.7625px;line-height:0.95;font-family:Roboto;-inkscape-font-specification:Roboto;letter-spacing:0px;word-spacing:0px;white-space:pre;shape-inside:url(#rect1206);fill:#e6e6e6;"
       id="text1204"
       xml:space="preserve"><tspan
         x="-282.66948"
         y="-175.21711"><tspan
           style="font-style:normal;font-variant:normal;font-weight:300;font-stretch:normal;font-family:Roboto;-inkscape-font-specification:'Roboto Light';text-align:center;text-anchor:middle;fill:#e6e6e6">Llegir en xarxa</tspan></tspan></text>
    <text
       xml:space="preserve"
       id="text1244"
       style="font-style:normal;font-variant:normal;font-weight:normal;font-stretch:normal;font-size:4.7625px;line-height:0.95;font-family:Roboto;-inkscape-font-specification:Roboto;letter-spacing:0px;word-spacing:0px;white-space:pre;shape-inside:url(#rect1246);fill:#e6e6e6;"
       x="9.8319578"
       y="0"
       transform="matrix(0.69637137,0,0,0.69637137,-23.569608,-59.672732)"><tspan
         x="-281.26582"
         y="-175.21711"><tspan
           style="font-style:normal;font-variant:normal;font-weight:normal;font-stretch:normal;font-family:Roboto;-inkscape-font-specification:Roboto;text-align:center;text-anchor:middle;fill:#e6e6e6">(miniops)</tspan></tspan></text>
    <g
       transform="translate(-1.2160697,-8.4666659)"
       id="g1326">
      <rect
         style="fill:none;stroke:#ffffff;stroke-width:0.236546;stroke-linecap:round;stroke-linejoin:round;stroke-miterlimit:4;stroke-dasharray:none;stroke-opacity:1"
         id="rect1248"
         width="19.974289"
         height="9.1345062"
         x="-231.96785"
         y="-157.51859"
         ry="2.3654625" />
      <text
         transform="matrix(1.0558446,0,0,1.0558446,69.630843,33.813597)"
         y="0"
         x="9.8319578"
         style="font-style:normal;font-variant:normal;font-weight:normal;font-stretch:normal;font-size:4.7625px;line-height:0.95;font-family:Roboto;-inkscape-font-specification:Roboto;letter-spacing:0px;word-spacing:0px;white-space:pre;shape-inside:url(#rect1254);fill:#e6e6e6;"
         id="text1252"
         xml:space="preserve"><tspan
           x="-282.62708"
           y="-175.21711"><tspan
             style="font-style:normal;font-variant:normal;font-weight:300;font-stretch:normal;font-family:Roboto;-inkscape-font-specification:'Roboto Light';text-align:center;text-anchor:middle;fill:#e6e6e6">Entrar</tspan></tspan></text>
    </g>
    <g
       id="g3177">
      <rect
         ry="2.3654625"
         y="-154.47586"
         x="-233.18393"
         height="9.1345062"
         width="19.974297"
         id="rect1261"
         style="fill:none;stroke:#ffffff;stroke-width:0.236546;stroke-linecap:round;stroke-linejoin:round;stroke-miterlimit:4;stroke-dasharray:none;stroke-opacity:1"
         inkscape:connector-avoid="true" />
      <text
         xml:space="preserve"
         id="text1265"
         style="font-style:normal;font-variant:normal;font-weight:normal;font-stretch:normal;font-size:4.7625px;line-height:0.95;font-family:Roboto;-inkscape-font-specification:Roboto;letter-spacing:0px;word-spacing:0px;white-space:pre;shape-inside:url(#rect1270);fill:#e6e6e6;"
         x="9.8319578"
         y="0"
         transform="matrix(1.0558446,0,0,1.0558446,67.538261,36.856311)"><tspan
           x="-282.76315"
           y="-175.21711"><tspan
             style="font-style:normal;font-variant:normal;font-weight:300;font-stretch:normal;font-family:Roboto;-inkscape-font-specification:'Roboto Light';text-align:center;text-anchor:middle;fill:#e6e6e6">Crèdits</tspan></tspan></text>
    </g>
    <g
       transform="matrix(0.15315897,0,0,0.15315897,-234.04793,-134.7578)"
       id="g1316"
       style="fill:none">
      <path
         fill-rule="evenodd"
         clip-rule="evenodd"
         d="M 5.57946,4.59716 V 0 H 0 V 4.59716 Z M 0,7.74057 V 28.0545 H 5.57946 V 7.74057 Z M 13.653,17.917 c 0,0.812 0.0786,1.6044 0.2358,2.3771 0.1572,0.7728 0.4257,1.4669 0.8055,2.0825 0.3798,0.6156 0.884,1.1067 1.5127,1.4735 0.6287,0.3667 1.4145,0.55 2.3575,0.55 0.943,0 1.7354,-0.1833 2.3772,-0.55 0.6418,-0.3668 1.1526,-0.8579 1.5324,-1.4735 0.3798,-0.6156 0.6483,-1.3097 0.8055,-2.0825 0.1571,-0.7727 0.2357,-1.5651 0.2357,-2.3771 0,-0.8121 -0.0786,-1.611 -0.2357,-2.3968 -0.1572,-0.7859 -0.4257,-1.48 -0.8055,-2.0825 -0.3798,-0.6025 -0.8906,-1.0936 -1.5324,-1.4734 -0.6418,-0.3799 -1.4342,-0.5698 -2.3772,-0.5698 -0.943,0 -1.7288,0.1899 -2.3575,0.5698 -0.6287,0.3798 -1.1329,0.8709 -1.5127,1.4734 -0.3798,0.6025 -0.6483,1.2966 -0.8055,2.0825 -0.1572,0.7858 -0.2358,1.5847 -0.2358,2.3968 z m -5.57942,2e-4 c 0,-1.6241 0.24885,-3.0975 0.74655,-4.4203 0.4977,-1.3229 1.20497,-2.4492 2.12177,-3.3792 0.9168,-0.92987 2.017,-1.65022 3.3005,-2.16101 1.2836,-0.5108 2.7243,-0.7662 4.3221,-0.7662 1.5979,0 3.0451,0.2554 4.3418,0.7662 1.2966,0.51079 2.4033,1.23114 3.3202,2.16101 0.9168,0.93 1.624,2.0563 2.1217,3.3792 0.4977,1.3228 0.7466,2.7962 0.7466,4.4203 0,1.6241 -0.2489,3.091 -0.7466,4.4007 -0.4977,1.3097 -1.2049,2.4295 -2.1217,3.3595 -0.9169,0.9299 -2.0236,1.6437 -3.3202,2.1414 -1.2967,0.4977 -2.7439,0.7465 -4.3418,0.7465 -1.5978,0 -3.0385,-0.2488 -4.3221,-0.7465 C 12.9589,27.3211 11.8587,26.6073 10.9419,25.6774 10.0251,24.7474 9.31783,23.6276 8.82013,22.3179 8.32243,21.0082 8.07358,19.5413 8.07358,17.9172 Z M 45.2627,14.8917 h 5.4616 C 50.6457,13.582 50.3314,12.4491 49.7813,11.493 49.2312,10.5369 48.5174,9.73792 47.6399,9.09615 46.7623,8.45438 45.7669,7.97633 44.6537,7.662 43.5404,7.34766 42.3813,7.19049 41.1763,7.19049 c -1.6502,0 -3.1171,0.27504 -4.4007,0.82513 -1.2835,0.55009 -2.3706,1.31628 -3.2612,2.29858 -0.8906,0.9823 -1.5651,2.148 -2.0235,3.497 -0.4584,1.349 -0.6876,2.8094 -0.6876,4.381 0,1.5193 0.2488,2.9142 0.7465,4.1846 0.4977,1.2705 1.1919,2.3641 2.0825,3.2809 0.8906,0.9168 1.9711,1.6306 3.2416,2.1414 1.2704,0.5108 2.6653,0.7662 4.1846,0.7662 2.698,0 4.9114,-0.7072 6.6403,-2.1218 1.7288,-1.4145 2.7766,-3.4707 3.1433,-6.1688 h -5.3829 c -0.1834,1.2574 -0.6353,2.2593 -1.3556,3.0058 -0.7204,0.7466 -1.7485,1.1199 -3.0844,1.1199 -0.8645,0 -1.5979,-0.1965 -2.2004,-0.5894 -0.6025,-0.3929 -1.0805,-0.8972 -1.4341,-1.5128 -0.3537,-0.6155 -0.6091,-1.3031 -0.7662,-2.0628 -0.1572,-0.7596 -0.2358,-1.5062 -0.2358,-2.2396 0,-0.7597 0.0786,-1.5259 0.2358,-2.2986 0.1571,-0.7727 0.4256,-1.48 0.8054,-2.1218 0.3799,-0.6417 0.871,-1.1656 1.4735,-1.5716 0.6025,-0.4061 1.349,-0.6091 2.2396,-0.6091 2.3838,0 3.759,1.1657 4.1257,3.497 z"
         fill="#ffffff"
         id="path1296" />
      <path
         fill-rule="evenodd"
         clip-rule="evenodd"
         d="M 75.4919,9.94625 V 8.52599 h -1.7238 v 1.42026 z m -1.7238,0.97115 v 6.2758 h 1.7237 v -6.2758 z m 2.6999,-3e-4 v 6.2759 h 1.7237 v -3.2897 c 0,-0.6393 0.1052,-1.0986 0.3156,-1.3778 0.2104,-0.2792 0.5503,-0.4187 1.0197,-0.4187 0.4127,0 0.7,0.1274 0.8619,0.3823 0.1618,0.2549 0.2428,0.6414 0.2428,1.1593 v 3.5446 h 1.7237 v -3.8602 c 0,-0.3885 -0.0344,-0.7425 -0.1032,-1.0622 -0.0688,-0.3196 -0.1881,-0.5907 -0.3581,-0.8133 -0.1699,-0.2225 -0.4026,-0.3965 -0.698,-0.522 -0.2954,-0.1254 -0.6737,-0.1881 -1.135,-0.1881 -0.3641,0 -0.7202,0.0829 -1.0682,0.2488 -0.348,0.1659 -0.6312,0.431 -0.8497,0.7951 h -0.0364 v -0.874 z m 8.1503,4.2365 h -1.6388 c 0.0162,0.4209 0.1113,0.7709 0.2853,1.0501 0.174,0.2792 0.3965,0.5037 0.6676,0.6737 0.2711,0.1699 0.5807,0.2913 0.9287,0.3641 0.348,0.0729 0.704,0.1093 1.0682,0.1093 0.3561,0 0.7061,-0.0344 1.05,-0.1032 0.344,-0.0688 0.6495,-0.1881 0.9165,-0.3581 0.2671,-0.1699 0.4836,-0.3945 0.6495,-0.6737 0.1659,-0.2792 0.2488,-0.6252 0.2488,-1.0379 0,-0.2913 -0.0566,-0.5361 -0.1699,-0.7344 C 88.5109,14.2452 88.3611,14.0793 88.175,13.9458 87.9889,13.8123 87.7765,13.705 87.5377,13.6241 87.299,13.5432 87.0542,13.4744 86.8033,13.4178 86.5605,13.3611 86.3218,13.3085 86.0871,13.26 85.8524,13.2114 85.644,13.1568 85.462,13.0961 c -0.1821,-0.0607 -0.3298,-0.1396 -0.4431,-0.2367 -0.1133,-0.0971 -0.17,-0.2226 -0.17,-0.3763 0,-0.1295 0.0324,-0.2327 0.0971,-0.3096 0.0648,-0.0769 0.1437,-0.1355 0.2368,-0.176 0.093,-0.0405 0.1962,-0.0668 0.3095,-0.0789 0.1133,-0.0121 0.2185,-0.0182 0.3156,-0.0182 0.3075,0 0.5746,0.0587 0.8012,0.176 0.2266,0.1173 0.352,0.3419 0.3763,0.6737 h 1.6388 c -0.0324,-0.3884 -0.1315,-0.7101 -0.2974,-0.965 -0.1659,-0.255 -0.3743,-0.4593 -0.6252,-0.6131 -0.2509,-0.1537 -0.5361,-0.263 -0.8558,-0.3277 -0.3197,-0.0647 -0.6494,-0.0971 -0.9893,-0.0971 -0.3399,0 -0.6717,0.0303 -0.9954,0.091 -0.3237,0.0607 -0.6151,0.1659 -0.874,0.3156 -0.259,0.1498 -0.4674,0.3541 -0.6252,0.6131 -0.1578,0.2589 -0.2367,0.5907 -0.2367,0.9954 0,0.2751 0.0566,0.5078 0.1699,0.6979 0.1133,0.1902 0.2631,0.348 0.4492,0.4735 0.1861,0.1254 0.3985,0.2266 0.6373,0.3034 0.2387,0.0769 0.4835,0.1437 0.7344,0.2003 0.615,0.1295 1.0945,0.259 1.4385,0.3885 0.3439,0.1295 0.5159,0.3237 0.5159,0.5827 0,0.1537 -0.0365,0.2812 -0.1093,0.3823 -0.0728,0.1012 -0.1639,0.1821 -0.2731,0.2428 -0.1093,0.0607 -0.2307,0.1052 -0.3642,0.1335 -0.1335,0.0284 -0.261,0.0425 -0.3824,0.0425 -0.1699,0 -0.3338,-0.0202 -0.4916,-0.0607 -0.1578,-0.0404 -0.2974,-0.1032 -0.4188,-0.1881 -0.1214,-0.085 -0.2205,-0.1942 -0.2974,-0.3278 -0.0769,-0.1335 -0.1153,-0.2933 -0.1153,-0.4795 z m 6.9851,-4.2364 V 9.03568 h -1.7237 v 1.88152 h -1.044 v 1.1532 h 1.044 v 3.7024 c 0,0.3156 0.0526,0.5705 0.1578,0.7648 0.1052,0.1942 0.2488,0.3439 0.4309,0.4491 0.1821,0.1052 0.3925,0.176 0.6313,0.2124 0.2387,0.0365 0.4916,0.0547 0.7586,0.0547 0.17,0 0.344,-0.0041 0.522,-0.0122 0.1781,-0.0081 0.3399,-0.0242 0.4856,-0.0485 v -1.3353 c -0.081,0.0162 -0.1659,0.0283 -0.2549,0.0364 -0.0891,0.0081 -0.1821,0.0121 -0.2792,0.0121 -0.2914,0 -0.4856,-0.0485 -0.5827,-0.1456 -0.0971,-0.0971 -0.1457,-0.2914 -0.1457,-0.5827 v -3.1076 h 1.2625 v -1.1532 z m 3.477,-0.97106 V 8.52588 h -1.7238 v 1.42026 z m -1.7238,0.97126 v 6.2758 h 1.7238 v -6.2758 z m 4.8848,-2e-4 V 9.03568 h -1.7237 v 1.88152 h -1.044 v 1.1532 h 1.044 v 3.7024 c 0,0.3156 0.0526,0.5705 0.1578,0.7648 0.1052,0.1942 0.2488,0.3439 0.4309,0.4491 0.1821,0.1052 0.3925,0.176 0.6313,0.2124 0.2387,0.0365 0.4916,0.0547 0.7586,0.0547 0.17,0 0.344,-0.0041 0.522,-0.0122 0.1781,-0.0081 0.3399,-0.0242 0.4856,-0.0485 v -1.3353 c -0.081,0.0162 -0.1659,0.0283 -0.2549,0.0364 -0.0891,0.0081 -0.1821,0.0121 -0.2792,0.0121 -0.2914,0 -0.4856,-0.0485 -0.5827,-0.1456 C 98.29,15.6636 98.2414,15.4693 98.2414,15.178 v -3.1076 h 1.2625 v -1.1532 z m 7.5926,6.276 v -6.2758 h -1.724 v 3.2897 c 0,0.6393 -0.105,1.0985 -0.316,1.3777 -0.21,0.2792 -0.55,0.4188 -1.019,0.4188 -0.413,0 -0.7,-0.1274 -0.862,-0.3824 -0.162,-0.2549 -0.243,-0.6413 -0.243,-1.1592 v -3.5446 h -1.7238 v 3.8602 c 0,0.3884 0.0344,0.7425 0.1028,1.0621 0.069,0.3197 0.189,0.5908 0.358,0.8134 0.17,0.2225 0.403,0.3945 0.698,0.5159 0.296,0.1214 0.674,0.1821 1.135,0.1821 0.365,0 0.721,-0.081 1.069,-0.2428 0.348,-0.1619 0.631,-0.4249 0.849,-0.7891 h 0.037 v 0.874 z m 3.112,-6.276 V 9.03568 h -1.724 v 1.88152 h -1.044 v 1.1532 h 1.044 v 3.7024 c 0,0.3156 0.053,0.5705 0.158,0.7648 0.105,0.1942 0.249,0.3439 0.431,0.4491 0.182,0.1052 0.393,0.176 0.631,0.2124 0.239,0.0365 0.492,0.0547 0.759,0.0547 0.17,0 0.344,-0.0041 0.522,-0.0122 0.178,-0.0081 0.34,-0.0242 0.486,-0.0485 v -1.3353 c -0.081,0.0162 -0.166,0.0283 -0.255,0.0364 -0.089,0.0081 -0.182,0.0121 -0.28,0.0121 -0.291,0 -0.485,-0.0485 -0.582,-0.1456 -0.097,-0.0971 -0.146,-0.2914 -0.146,-0.5827 v -3.1076 h 1.263 v -1.1532 z m 5.714,3.144 c 0,0.2509 0.025,0.4957 0.073,0.7344 0.049,0.2387 0.132,0.4532 0.249,0.6434 0.117,0.1901 0.273,0.3419 0.467,0.4552 0.195,0.1133 0.437,0.1699 0.729,0.1699 0.291,0 0.536,-0.0566 0.734,-0.1699 0.198,-0.1133 0.356,-0.2651 0.474,-0.4552 0.117,-0.1902 0.2,-0.4047 0.248,-0.6434 0.049,-0.2387 0.073,-0.4835 0.073,-0.7344 0,-0.2509 -0.024,-0.4977 -0.073,-0.7405 -0.048,-0.2428 -0.131,-0.4572 -0.248,-0.6434 -0.118,-0.1861 -0.276,-0.3378 -0.474,-0.4552 -0.198,-0.1173 -0.443,-0.176 -0.734,-0.176 -0.292,0 -0.534,0.0587 -0.729,0.176 -0.194,0.1174 -0.35,0.2691 -0.467,0.4552 -0.117,0.1862 -0.2,0.4006 -0.249,0.6434 -0.048,0.2428 -0.073,0.4896 -0.073,0.7405 z m -1.723,-10e-5 c 0,-0.5017 0.077,-0.9569 0.23,-1.3656 0.154,-0.4087 0.373,-0.7567 0.656,-1.044 0.283,-0.2873 0.623,-0.5098 1.02,-0.6676 0.396,-0.1578 0.841,-0.2367 1.335,-0.2367 0.494,0 0.941,0.0789 1.341,0.2367 0.401,0.1578 0.743,0.3803 1.026,0.6676 0.283,0.2873 0.502,0.6353 0.656,1.044 0.153,0.4087 0.23,0.8639 0.23,1.3656 0,0.5018 -0.077,0.955 -0.23,1.3596 -0.154,0.4046 -0.373,0.7506 -0.656,1.0379 -0.283,0.2873 -0.625,0.5078 -1.026,0.6615 -0.4,0.1538 -0.847,0.2307 -1.341,0.2307 -0.494,0 -0.939,-0.0769 -1.335,-0.2307 -0.397,-0.1537 -0.737,-0.3742 -1.02,-0.6615 -0.283,-0.2873 -0.502,-0.6333 -0.656,-1.0379 -0.153,-0.4046 -0.23,-0.8578 -0.23,-1.3596 z m 11.828,10e-5 c 0,-0.2671 -0.028,-0.522 -0.085,-0.7648 -0.056,-0.2428 -0.145,-0.4572 -0.267,-0.6433 -0.121,-0.1862 -0.273,-0.3339 -0.455,-0.4431 -0.182,-0.1093 -0.403,-0.1639 -0.662,-0.1639 -0.25,0 -0.469,0.0546 -0.655,0.1639 -0.186,0.1092 -0.34,0.2569 -0.461,0.4431 -0.122,0.1861 -0.211,0.4005 -0.267,0.6433 -0.057,0.2428 -0.085,0.4977 -0.085,0.7648 0,0.2589 0.028,0.5098 0.085,0.7526 0.056,0.2428 0.145,0.4572 0.267,0.6434 0.121,0.1861 0.275,0.3338 0.461,0.443 0.186,0.1093 0.405,0.1639 0.655,0.1639 0.259,0 0.48,-0.0546 0.662,-0.1639 0.182,-0.1092 0.334,-0.2569 0.455,-0.443 0.122,-0.1862 0.211,-0.4006 0.267,-0.6434 0.057,-0.2428 0.085,-0.4937 0.085,-0.7526 z m -4.601,-5.53532 h 1.724 V 11.682 h 0.024 c 0.211,-0.3237 0.496,-0.5604 0.856,-0.7101 0.36,-0.1497 0.735,-0.2246 1.123,-0.2246 0.316,0 0.627,0.0648 0.935,0.1942 0.307,0.1295 0.585,0.3278 0.831,0.5948 0.247,0.2671 0.447,0.609 0.601,1.0258 0.154,0.4168 0.231,0.9124 0.231,1.487 0,0.5746 -0.077,1.0703 -0.231,1.487 -0.154,0.4168 -0.354,0.7587 -0.601,1.0258 -0.246,0.267 -0.524,0.4653 -0.831,0.5948 -0.308,0.1295 -0.619,0.1942 -0.935,0.1942 -0.461,0 -0.874,-0.0728 -1.238,-0.2185 -0.364,-0.1457 -0.639,-0.3925 -0.826,-0.7405 h -0.024 v 0.8012 h -1.639 z m 11.259,4.85552 c -0.081,-0.437 -0.225,-0.7688 -0.431,-0.9954 -0.207,-0.2266 -0.52,-0.3399 -0.941,-0.3399 -0.275,0 -0.504,0.0465 -0.686,0.1396 -0.182,0.0931 -0.328,0.2084 -0.437,0.346 -0.109,0.1375 -0.186,0.2832 -0.231,0.437 -0.044,0.1537 -0.07,0.2913 -0.079,0.4127 z m -2.805,1.0925 c 0.025,0.5583 0.166,0.963 0.425,1.2138 0.259,0.2509 0.631,0.3764 1.117,0.3764 0.348,0 0.647,-0.087 0.898,-0.261 0.251,-0.174 0.405,-0.3581 0.462,-0.5524 h 1.517 c -0.243,0.7527 -0.615,1.2908 -1.117,1.6145 -0.502,0.3237 -1.109,0.4856 -1.821,0.4856 -0.493,0 -0.938,-0.0789 -1.335,-0.2367 -0.397,-0.1578 -0.732,-0.3824 -1.007,-0.6737 -0.276,-0.2914 -0.488,-0.6394 -0.638,-1.044 -0.15,-0.4046 -0.224,-0.8497 -0.224,-1.3353 0,-0.4694 0.077,-0.9063 0.23,-1.311 0.154,-0.4046 0.373,-0.7546 0.656,-1.05 0.283,-0.2954 0.621,-0.528 1.013,-0.698 0.393,-0.1699 0.828,-0.2549 1.305,-0.2549 0.534,0 1,0.1032 1.396,0.3095 0.397,0.2064 0.723,0.4836 0.977,0.8315 0.255,0.348 0.44,0.7446 0.553,1.1897 0.113,0.4451 0.154,0.9104 0.121,1.396 z m 5.164,-3.5568 h 1.639 v 1.1654 h 0.024 c 0.081,-0.1942 0.191,-0.3743 0.328,-0.5402 0.138,-0.1659 0.296,-0.3075 0.474,-0.4249 0.178,-0.1173 0.368,-0.2084 0.57,-0.2731 0.202,-0.0647 0.413,-0.0971 0.631,-0.0971 0.114,0 0.239,0.0202 0.377,0.0607 v 0.1093 h 0.757 V 9.03568 h 1.724 v 1.88152 h 1.263 v 1.1532 h -1.263 v 3.1076 c 0,0.2913 0.049,0.4856 0.146,0.5827 0.097,0.0971 0.291,0.1456 0.583,0.1456 0.097,0 0.19,-0.004 0.279,-0.0121 0.089,-0.0081 0.174,-0.0202 0.255,-0.0364 v 1.3353 c -0.146,0.0243 -0.308,0.0404 -0.486,0.0485 -0.178,0.0081 -0.352,0.0122 -0.522,0.0122 -0.267,0 -0.52,-0.0182 -0.759,-0.0547 -0.238,-0.0364 -0.449,-0.1072 -0.631,-0.2124 -0.182,-0.1052 -0.326,-0.2549 -0.431,-0.4491 -0.105,-0.1943 -0.158,-0.4492 -0.158,-0.7648 v -3.7024 h -0.757 v 0.3398 c -0.081,-0.0162 -0.178,-0.0303 -0.292,-0.0425 -0.113,-0.0121 -0.222,-0.0182 -0.327,-0.0182 -0.316,0 -0.583,0.0526 -0.802,0.1578 -0.218,0.1052 -0.394,0.2489 -0.528,0.431 -0.133,0.1821 -0.228,0.3945 -0.285,0.6373 -0.057,0.2427 -0.085,0.5058 -0.085,0.789 v 2.8284 h -1.724 z"
         fill="#ffffff"
         id="path1298" />
      <path
         fill-rule="evenodd"
         clip-rule="evenodd"
         d="m 77.754,24.2594 c 0,-0.2589 -0.0242,-0.5078 -0.0728,-0.7465 -0.0486,-0.2387 -0.1315,-0.4492 -0.2488,-0.6312 -0.1174,-0.1821 -0.2691,-0.3298 -0.4553,-0.4431 -0.1861,-0.1133 -0.4208,-0.17 -0.704,-0.17 -0.2833,0 -0.522,0.0567 -0.7162,0.17 -0.1942,0.1133 -0.35,0.263 -0.4674,0.4491 -0.1173,0.1862 -0.2023,0.3986 -0.2549,0.6373 -0.0526,0.2388 -0.0789,0.4876 -0.0789,0.7466 0,0.2428 0.0283,0.4855 0.085,0.7283 0.0566,0.2428 0.1477,0.4593 0.2731,0.6495 0.1254,0.1901 0.2833,0.3439 0.4734,0.4612 0.1902,0.1174 0.4188,0.176 0.6859,0.176 0.2832,0 0.5199,-0.0566 0.7101,-0.1699 0.1902,-0.1133 0.3419,-0.265 0.4552,-0.4552 0.1133,-0.1902 0.1942,-0.4067 0.2428,-0.6494 0.0486,-0.2428 0.0728,-0.4937 0.0728,-0.7527 z m 0.0241,2.3552 h -0.0243 c -0.2023,0.3399 -0.4673,0.5847 -0.7951,0.7344 -0.3278,0.1497 -0.698,0.2246 -1.1107,0.2246 -0.4694,0 -0.8821,-0.0911 -1.2382,-0.2732 -0.3561,-0.182 -0.6494,-0.4289 -0.8801,-0.7404 -0.2306,-0.3116 -0.4046,-0.6697 -0.5219,-1.0743 -0.1174,-0.4047 -0.1761,-0.8255 -0.1761,-1.2625 0,-0.4208 0.0587,-0.8275 0.1761,-1.22 0.1173,-0.3924 0.2913,-0.7384 0.5219,-1.0378 0.2307,-0.2995 0.52,-0.5402 0.868,-0.7223 0.348,-0.1821 0.7526,-0.2731 1.2139,-0.2731 0.3722,0 0.7263,0.0789 1.0621,0.2367 0.3359,0.1578 0.6009,0.3904 0.7951,0.698 h 0.0243 v -3.1562 h 1.7237 v 8.6673 h -1.6387 z m 6.7787,-3.0107 c -0.0809,-0.437 -0.2246,-0.7688 -0.431,-0.9954 -0.2063,-0.2266 -0.5199,-0.3399 -0.9407,-0.3399 -0.2752,0 -0.5038,0.0466 -0.6859,0.1396 -0.1821,0.0931 -0.3277,0.2084 -0.437,0.346 -0.1092,0.1376 -0.1861,0.2832 -0.2306,0.437 -0.0445,0.1538 -0.0708,0.2913 -0.0789,0.4127 z m -2.804,1.0925 c 0.0243,0.5584 0.1659,0.963 0.4249,1.2139 0.259,0.2509 0.6312,0.3763 1.1168,0.3763 0.348,0 0.6474,-0.087 0.8983,-0.261 0.2508,-0.174 0.4046,-0.3581 0.4612,-0.5523 h 1.5174 c -0.2428,0.7526 -0.615,1.2908 -1.1168,1.6145 -0.5017,0.3237 -1.1087,0.4855 -1.8208,0.4855 -0.4937,0 -0.9388,-0.0789 -1.3353,-0.2367 -0.3965,-0.1578 -0.7324,-0.3824 -1.0075,-0.6737 -0.2752,-0.2913 -0.4876,-0.6393 -0.6373,-1.044 -0.1498,-0.4046 -0.2246,-0.8497 -0.2246,-1.3352 0,-0.4694 0.0769,-0.9064 0.2306,-1.311 0.1538,-0.4047 0.3723,-0.7547 0.6555,-1.0501 0.2833,-0.2954 0.6211,-0.528 1.0136,-0.698 0.3925,-0.1699 0.8275,-0.2549 1.305,-0.2549 0.5341,0 0.9994,0.1032 1.396,0.3096 0.3965,0.2063 0.7222,0.4835 0.9771,0.8315 0.255,0.348 0.4391,0.7445 0.5524,1.1896 0.1133,0.4451 0.1537,0.9104 0.1214,1.396 z M 94.1811,23.349 h 1.6873 c -0.0243,-0.4047 -0.1214,-0.7547 -0.2913,-1.0501 -0.17,-0.2953 -0.3905,-0.5422 -0.6616,-0.7404 -0.2711,-0.1983 -0.5786,-0.346 -0.9226,-0.4431 -0.3439,-0.0971 -0.702,-0.1457 -1.0743,-0.1457 -0.5098,0 -0.963,0.085 -1.3595,0.2549 -0.3966,0.17 -0.7324,0.4067 -1.0076,0.7102 -0.2751,0.3034 -0.4835,0.6636 -0.6251,1.0803 -0.1417,0.4168 -0.2125,0.868 -0.2125,1.3535 0,0.4694 0.0769,0.9003 0.2307,1.2928 0.1537,0.3925 0.3682,0.7304 0.6433,1.0136 0.2752,0.2833 0.609,0.5038 1.0015,0.6616 0.3925,0.1578 0.8234,0.2367 1.2928,0.2367 0.8336,0 1.5174,-0.2185 2.0515,-0.6555 0.5341,-0.437 0.8578,-1.0723 0.9711,-1.9058 h -1.663 c -0.0567,0.3884 -0.1963,0.698 -0.4188,0.9286 -0.2226,0.2307 -0.5402,0.346 -0.9529,0.346 -0.2671,0 -0.4937,-0.0607 -0.6798,-0.1821 -0.1861,-0.1214 -0.3338,-0.2772 -0.4431,-0.4673 -0.1092,-0.1902 -0.1881,-0.4027 -0.2367,-0.6373 -0.0486,-0.2347 -0.0728,-0.4654 -0.0728,-0.692 0,-0.2347 0.0242,-0.4714 0.0728,-0.7101 0.0486,-0.2387 0.1315,-0.4572 0.2489,-0.6555 0.1173,-0.1983 0.269,-0.3601 0.4552,-0.4856 0.1861,-0.1254 0.4167,-0.1881 0.6919,-0.1881 0.7364,0 1.1613,0.3601 1.2746,1.0804 z M 96.42,23.0698 c 0.0242,-0.4047 0.1254,-0.7405 0.3034,-1.0076 0.1781,-0.267 0.4047,-0.4815 0.6798,-0.6433 0.2752,-0.1619 0.5847,-0.2772 0.9287,-0.346 0.3439,-0.0688 0.6898,-0.1032 1.0378,-0.1032 0.3156,0 0.6353,0.0223 0.9593,0.0668 0.323,0.0445 0.619,0.1315 0.886,0.261 0.267,0.1295 0.485,0.3095 0.655,0.5402 0.17,0.2306 0.255,0.5361 0.255,0.9164 v 3.2654 c 0,0.2833 0.016,0.5544 0.049,0.8133 0.032,0.259 0.089,0.4532 0.17,0.5827 h -1.748 c -0.033,-0.0971 -0.059,-0.1962 -0.079,-0.2974 -0.02,-0.1011 -0.035,-0.2043 -0.043,-0.3095 -0.275,0.2832 -0.5985,0.4815 -0.9707,0.5948 -0.3723,0.1133 -0.7527,0.1699 -1.1411,0.1699 -0.2994,0 -0.5786,-0.0364 -0.8376,-0.1092 -0.259,-0.0729 -0.4855,-0.1862 -0.6798,-0.3399 -0.1942,-0.1538 -0.3459,-0.348 -0.4552,-0.5827 -0.1092,-0.2347 -0.1639,-0.5139 -0.1639,-0.8376 0,-0.3561 0.0628,-0.6494 0.1882,-0.8801 0.1254,-0.2306 0.2873,-0.4147 0.4856,-0.5523 0.1982,-0.1376 0.4248,-0.2407 0.6797,-0.3095 0.255,-0.0688 0.5119,-0.1234 0.7709,-0.1639 0.2589,-0.0405 0.5138,-0.0728 0.7647,-0.0971 0.2509,-0.0243 0.4734,-0.0607 0.6677,-0.1093 0.1942,-0.0485 0.3475,-0.1193 0.4615,-0.2124 0.113,-0.0931 0.166,-0.2286 0.158,-0.4066 0,-0.1862 -0.031,-0.3339 -0.091,-0.4431 -0.061,-0.1093 -0.142,-0.1942 -0.243,-0.2549 -0.1014,-0.0607 -0.2188,-0.1012 -0.3523,-0.1214 -0.1335,-0.0203 -0.2772,-0.0304 -0.4309,-0.0304 -0.3399,0 -0.607,0.0729 -0.8012,0.2185 -0.1942,0.1457 -0.3075,0.3885 -0.3399,0.7284 z m 3.981,1.2745 c -0.072,0.0648 -0.163,0.1154 -0.273,0.1518 -0.109,0.0364 -0.2263,0.0667 -0.3518,0.091 -0.1254,0.0243 -0.2569,0.0445 -0.3945,0.0607 -0.1375,0.0162 -0.2751,0.0364 -0.4127,0.0607 -0.1295,0.0243 -0.2569,0.0567 -0.3824,0.0971 -0.1254,0.0405 -0.2347,0.0951 -0.3277,0.1639 -0.0931,0.0688 -0.168,0.1558 -0.2246,0.261 -0.0566,0.1052 -0.085,0.2387 -0.085,0.4006 0,0.1537 0.0284,0.2832 0.085,0.3884 0.0566,0.1052 0.1335,0.1882 0.2306,0.2489 0.0972,0.0607 0.2104,0.1032 0.3399,0.1274 0.1295,0.0243 0.263,0.0365 0.4006,0.0365 0.3399,0 0.6029,-0.0567 0.7891,-0.17 0.1861,-0.1133 0.3235,-0.2488 0.4125,-0.4067 0.089,-0.1578 0.144,-0.3176 0.164,-0.4794 0.02,-0.1619 0.03,-0.2914 0.03,-0.3885 z m 4.861,-3.2046 v -1.8816 h -1.724 v 1.8816 h -1.044 v 1.1532 h 1.044 v 3.7024 c 0,0.3156 0.053,0.5705 0.158,0.7647 0.105,0.1942 0.249,0.3439 0.431,0.4492 0.182,0.1052 0.392,0.176 0.631,0.2124 0.239,0.0364 0.492,0.0546 0.759,0.0546 0.17,0 0.344,-0.004 0.522,-0.0121 0.178,-0.0081 0.34,-0.0243 0.485,-0.0486 v -1.3353 c -0.08,0.0162 -0.165,0.0284 -0.254,0.0364 -0.089,0.0081 -0.183,0.0122 -0.28,0.0122 -0.291,0 -0.485,-0.0486 -0.582,-0.1457 -0.097,-0.0971 -0.146,-0.2913 -0.146,-0.5827 v -3.1075 h 1.262 v -1.1532 z m 1.632,1.9301 c 0.024,-0.4047 0.125,-0.7405 0.303,-1.0076 0.178,-0.267 0.405,-0.4815 0.68,-0.6433 0.275,-0.1619 0.585,-0.2772 0.929,-0.346 0.344,-0.0688 0.69,-0.1032 1.038,-0.1032 0.315,0 0.635,0.0223 0.959,0.0668 0.323,0.0445 0.619,0.1315 0.886,0.261 0.267,0.1295 0.485,0.3095 0.655,0.5402 0.17,0.2306 0.255,0.5361 0.255,0.9164 v 3.2654 c 0,0.2833 0.016,0.5544 0.049,0.8133 0.032,0.259 0.089,0.4532 0.17,0.5827 h -1.748 c -0.033,-0.0971 -0.059,-0.1962 -0.079,-0.2974 -0.02,-0.1011 -0.035,-0.2043 -0.043,-0.3095 -0.275,0.2832 -0.598,0.4815 -0.971,0.5948 -0.372,0.1133 -0.752,0.1699 -1.141,0.1699 -0.299,0 -0.578,-0.0364 -0.837,-0.1092 -0.259,-0.0729 -0.486,-0.1862 -0.68,-0.3399 -0.194,-0.1538 -0.346,-0.348 -0.455,-0.5827 -0.11,-0.2347 -0.164,-0.5139 -0.164,-0.8376 0,-0.3561 0.062,-0.6494 0.188,-0.8801 0.125,-0.2306 0.287,-0.4147 0.485,-0.5523 0.199,-0.1376 0.425,-0.2407 0.68,-0.3095 0.255,-0.0688 0.512,-0.1234 0.771,-0.1639 0.259,-0.0405 0.514,-0.0728 0.765,-0.0971 0.251,-0.0243 0.473,-0.0607 0.667,-0.1093 0.195,-0.0485 0.348,-0.1193 0.462,-0.2124 0.113,-0.0931 0.166,-0.2286 0.158,-0.4066 0,-0.1862 -0.031,-0.3339 -0.092,-0.4431 -0.06,-0.1093 -0.141,-0.1942 -0.242,-0.2549 -0.101,-0.0607 -0.219,-0.1012 -0.352,-0.1214 -0.134,-0.0203 -0.277,-0.0304 -0.431,-0.0304 -0.34,0 -0.607,0.0729 -0.801,0.2185 -0.195,0.1457 -0.308,0.3885 -0.34,0.7284 z m 3.981,1.2745 c -0.072,0.0648 -0.164,0.1154 -0.273,0.1518 -0.109,0.0364 -0.226,0.0667 -0.352,0.091 -0.125,0.0243 -0.257,0.0445 -0.394,0.0607 -0.138,0.0162 -0.275,0.0364 -0.413,0.0607 -0.13,0.0243 -0.257,0.0567 -0.382,0.0971 -0.126,0.0405 -0.235,0.0951 -0.328,0.1639 -0.093,0.0688 -0.168,0.1558 -0.225,0.261 -0.056,0.1052 -0.085,0.2387 -0.085,0.4006 0,0.1537 0.029,0.2832 0.085,0.3884 0.057,0.1052 0.134,0.1882 0.231,0.2489 0.097,0.0607 0.21,0.1032 0.34,0.1274 0.129,0.0243 0.263,0.0365 0.4,0.0365 0.34,0 0.603,-0.0567 0.789,-0.17 0.187,-0.1133 0.324,-0.2488 0.413,-0.4067 0.089,-0.1578 0.144,-0.3176 0.164,-0.4794 0.02,-0.1619 0.03,-0.2914 0.03,-0.3885 z m 2.725,-5.5959 v 8.6672 h 1.723 v -8.6672 z m 8.587,8.6674 v -6.2759 h -1.724 v 3.2897 c 0,0.6393 -0.105,1.0986 -0.315,1.3778 -0.211,0.2792 -0.55,0.4188 -1.02,0.4188 -0.413,0 -0.7,-0.1275 -0.862,-0.3824 -0.162,-0.2549 -0.243,-0.6414 -0.243,-1.1593 V 21.1399 H 116.3 v 3.8602 c 0,0.3885 0.034,0.7425 0.103,1.0622 0.069,0.3196 0.188,0.5907 0.358,0.8133 0.17,0.2225 0.403,0.3945 0.698,0.5159 0.295,0.1214 0.674,0.1821 1.135,0.1821 0.364,0 0.72,-0.0809 1.068,-0.2428 0.348,-0.1618 0.631,-0.4249 0.85,-0.789 h 0.036 v 0.874 z m 0.928,-6.2761 v 6.2758 h 1.723 v -3.2896 c 0,-0.6394 0.106,-1.0986 0.316,-1.3778 0.21,-0.2792 0.55,-0.4188 1.02,-0.4188 0.412,0 0.7,0.1274 0.862,0.3824 0.161,0.2549 0.242,0.6413 0.242,1.1592 v 3.5446 h 1.724 v -3.8602 c 0,-0.3884 -0.034,-0.7425 -0.103,-1.0621 -0.069,-0.3197 -0.188,-0.5908 -0.358,-0.8134 -0.17,-0.2225 -0.403,-0.3965 -0.698,-0.5219 -0.296,-0.1255 -0.674,-0.1882 -1.135,-0.1882 -0.364,0 -0.72,0.083 -1.068,0.2489 -0.348,0.1659 -0.632,0.4309 -0.85,0.7951 h -0.037 v -0.874 z m 9.91,7.053 c -0.186,0.5098 -0.445,0.874 -0.777,1.0925 -0.331,0.2185 -0.793,0.3277 -1.383,0.3277 -0.178,0 -0.355,-0.006 -0.528,-0.0182 -0.174,-0.0121 -0.351,-0.0263 -0.529,-0.0425 V 28.132 c 0.162,0.0162 0.328,0.0324 0.498,0.0485 0.17,0.0162 0.34,0.0203 0.51,0.0122 0.227,-0.0243 0.395,-0.1133 0.504,-0.2671 0.109,-0.1537 0.164,-0.3237 0.164,-0.5098 0,-0.1376 -0.025,-0.2671 -0.073,-0.3885 l -2.197,-5.8874 h 1.833 l 1.42,4.2972 h 0.024 l 1.372,-4.2972 h 1.784 z m 2.749,-5.1229 c 0.024,-0.4047 0.125,-0.7405 0.303,-1.0076 0.178,-0.267 0.405,-0.4815 0.68,-0.6433 0.275,-0.1619 0.585,-0.2772 0.929,-0.346 0.344,-0.0688 0.69,-0.1032 1.038,-0.1032 0.315,0 0.635,0.0223 0.959,0.0668 0.323,0.0445 0.619,0.1315 0.886,0.261 0.267,0.1295 0.485,0.3095 0.655,0.5402 0.17,0.2306 0.255,0.5361 0.255,0.9164 v 3.2654 c 0,0.2833 0.016,0.5544 0.049,0.8133 0.032,0.259 0.089,0.4532 0.17,0.5827 h -1.748 c -0.033,-0.0971 -0.059,-0.1962 -0.079,-0.2974 -0.02,-0.1011 -0.035,-0.2043 -0.043,-0.3095 -0.275,0.2832 -0.599,0.4815 -0.971,0.5948 -0.372,0.1133 -0.752,0.1699 -1.141,0.1699 -0.299,0 -0.579,-0.0364 -0.838,-0.1092 -0.258,-0.0729 -0.485,-0.1862 -0.679,-0.3399 -0.195,-0.1538 -0.346,-0.348 -0.456,-0.5827 -0.109,-0.2347 -0.163,-0.5139 -0.163,-0.8376 0,-0.3561 0.062,-0.6494 0.188,-0.8801 0.125,-0.2306 0.287,-0.4147 0.485,-0.5523 0.199,-0.1376 0.425,-0.2407 0.68,-0.3095 0.255,-0.0688 0.512,-0.1234 0.771,-0.1639 0.259,-0.0405 0.514,-0.0728 0.765,-0.0971 0.251,-0.0243 0.473,-0.0607 0.667,-0.1093 0.195,-0.0485 0.348,-0.1193 0.462,-0.2124 0.113,-0.0931 0.166,-0.2286 0.157,-0.4066 0,-0.1862 -0.03,-0.3339 -0.091,-0.4431 -0.06,-0.1093 -0.141,-0.1942 -0.242,-0.2549 -0.102,-0.0607 -0.219,-0.1012 -0.352,-0.1214 -0.134,-0.0203 -0.278,-0.0304 -0.431,-0.0304 -0.34,0 -0.607,0.0729 -0.802,0.2185 -0.194,0.1457 -0.307,0.3885 -0.339,0.7284 z m 3.981,1.2745 c -0.073,0.0648 -0.164,0.1154 -0.273,0.1518 -0.109,0.0364 -0.226,0.0667 -0.352,0.091 -0.125,0.0243 -0.257,0.0445 -0.394,0.0607 -0.138,0.0162 -0.276,0.0364 -0.413,0.0607 -0.13,0.0243 -0.257,0.0567 -0.382,0.0971 -0.126,0.0405 -0.235,0.0951 -0.328,0.1639 -0.093,0.0688 -0.168,0.1558 -0.225,0.261 -0.056,0.1052 -0.085,0.2387 -0.085,0.4006 0,0.1537 0.029,0.2832 0.085,0.3884 0.057,0.1052 0.134,0.1882 0.231,0.2489 0.097,0.0607 0.21,0.1032 0.34,0.1274 0.129,0.0243 0.263,0.0365 0.4,0.0365 0.34,0 0.603,-0.0567 0.789,-0.17 0.186,-0.1133 0.324,-0.2488 0.413,-0.4067 0.089,-0.1578 0.144,-0.3176 0.164,-0.4794 0.02,-0.1619 0.03,-0.2914 0.03,-0.3885 z"
         fill="#ffffff"
         id="path1300" />
      <path
         d="m 58.1299,1.50989 5.8841,3.3972 v 6.79441 l -5.8841,3.3972 -5.8842,-3.3972 V 4.90709 Z"
         fill="#5ec8ff"
         id="path1302-8" />
    </g>
    <g
       id="g3127"
       transform="translate(34.338914)">
      <path
         id="path1174"
         style="fill:#333333;stroke-width:0.430826;stroke-linecap:round;stroke-linejoin:round"
         d="m -175.75439,-148.17614 c -5.1229,0 -9.26954,4.14663 -9.26954,9.26954 v 92.589836 c 0,5.1229 4.14682,9.26758 9.26954,9.26758 h 35.70312 c 5.12272,0 9.26953,-4.14468 9.26953,-9.26758 V -138.9066 c 0,-5.12291 -4.14663,-9.26954 -9.26953,-9.26954 z" />
      <path
         id="path1176"
         style="fill:#000000;stroke-width:0.430826;stroke-linecap:round;stroke-linejoin:round"
         d="m -175.75481,-147.51323 h 35.70451 c 4.76777,0 8.60608,3.83831 8.60608,8.60608 v 92.589926 c 0,4.76777 -3.83831,8.60608 -8.60608,8.60608 h -35.70451 c -4.76776,0 -8.60607,-3.83831 -8.60607,-8.60608 v -92.589926 c 0,-4.76777 3.83831,-8.60608 8.60607,-8.60608 z" />
      <path
         id="path1178"
         style="fill:url(#linearGradient1202);fill-opacity:1;stroke:none;stroke-width:0.264583px;stroke-linecap:butt;stroke-linejoin:miter;stroke-opacity:1"
         d="m -167.13763,-147.51336 35.69343,47.712333 v -39.106143 c 0,-4.76777 -3.83842,-8.60619 -8.60619,-8.60619 z" />
      <path
         id="path1180"
         style="fill:#1a1a1a;stroke-width:0.896533;stroke-linecap:round;stroke-linejoin:round"
         d="m -181.71533,-135.29332 a 0.34769376,0.34769376 0 0 0 -0.34766,0.34765 v 84.666016 a 0.34769376,0.34769376 0 0 0 0.34766,0.34766 h 47.625 a 0.34769376,0.34769376 0 0 0 0.34766,-0.34766 v -84.666016 a 0.34769376,0.34769376 0 0 0 -0.34766,-0.34765 z" />
      <path
         id="path1182"
         style="fill:#333333;fill-opacity:1;stroke-width:0.896533;stroke-linecap:round;stroke-linejoin:round"
         d="m -181.71506,-134.94551 h 47.625 v 84.666656 h -47.625 z" />
      <text
         xml:space="preserve"
         id="text3101"
         style="font-size:2.64583px;line-height:1.25;font-family:Helvetica;-inkscape-font-specification:'Helvetica, Normal';letter-spacing:0px;word-spacing:0px;white-space:pre;shape-inside:url(#rect3103);fill:#ffffff;"
         transform="translate(-63.721696,-2.1277514)"
         inkscape:label="Crèdits text"><tspan
           x="-115.23047"
           y="-115.67926"><tspan
             style="font-style:normal;font-variant:normal;font-weight:300;font-stretch:normal;font-size:2.64583px;font-family:Roboto;-inkscape-font-specification:'Roboto Light';fill:#ffffff">Llegir en xarxa forma part del </tspan></tspan><tspan
           x="-115.23047"
           y="-112.30383"><tspan
             style="font-style:normal;font-variant:normal;font-weight:300;font-stretch:normal;font-size:2.64583px;font-family:Roboto;-inkscape-font-specification:'Roboto Light';fill:#ffffff">projecte &quot;miniops&quot; de l'Institut obert </tspan></tspan><tspan
           x="-115.23047"
           y="-108.9284"><tspan
             style="font-style:normal;font-variant:normal;font-weight:300;font-stretch:normal;font-size:2.64583px;font-family:Roboto;-inkscape-font-specification:'Roboto Light';fill:#ffffff">de Catalunya... orem ipsum dolor </tspan></tspan><tspan
           x="-115.23047"
           y="-105.55298"><tspan
             style="font-style:normal;font-variant:normal;font-weight:300;font-stretch:normal;font-size:2.64583px;font-family:Roboto;-inkscape-font-specification:'Roboto Light';fill:#ffffff">est... lorem ipsum dolor est... lorem </tspan></tspan><tspan
           x="-115.23047"
           y="-102.17755"><tspan
             style="font-style:normal;font-variant:normal;font-weight:300;font-stretch:normal;font-size:2.64583px;font-family:Roboto;-inkscape-font-specification:'Roboto Light';fill:#ffffff">ipsum dolor est...
</tspan></tspan><tspan
           x="-115.23047"
           y="-98.802121"><tspan
             style="font-style:normal;font-variant:normal;font-weight:300;font-stretch:normal;font-size:2.64583px;font-family:Roboto;-inkscape-font-specification:'Roboto Light';fill:#ffffff">
</tspan></tspan><tspan
           x="-115.23047"
           y="-95.426694"><tspan
             style="font-style:normal;font-variant:normal;font-weight:300;font-stretch:normal;font-size:2.64583px;font-family:Roboto;-inkscape-font-specification:'Roboto Light';fill:#ffffff">Lorem ipsum dolor to dolor est </tspan></tspan><tspan
           x="-115.23047"
           y="-92.051266"><tspan
             style="font-style:normal;font-variant:normal;font-weight:300;font-stretch:normal;font-size:2.64583px;font-family:Roboto;-inkscape-font-specification:'Roboto Light';fill:#ffffff">dolor... dolor.. est lorem ipsum.
</tspan></tspan><tspan
           x="-115.23047"
           y="-88.675839"><tspan
             style="font-style:normal;font-variant:normal;font-weight:300;font-stretch:normal;font-size:2.64583px;font-family:Roboto;-inkscape-font-specification:'Roboto Light';fill:#ffffff">
</tspan></tspan><tspan
           x="-115.23047"
           y="-85.300412"><tspan
             style="font-style:normal;font-variant:normal;font-weight:300;font-stretch:normal;font-size:2.64583px;font-family:Roboto;-inkscape-font-specification:'Roboto Light';fill:#ffffff">Disseny i redacció del miniop: 
</tspan></tspan><tspan
           x="-115.23047"
           y="-81.924985"><tspan
             style="font-style:normal;font-variant:normal;font-weight:300;font-stretch:normal;font-size:2.64583px;font-family:Roboto;-inkscape-font-specification:'Roboto Light';fill:#ffffff">
</tspan></tspan><tspan
           x="-115.23047"
           y="-78.549557"><tspan
             style="font-style:normal;font-variant:normal;font-weight:300;font-stretch:normal;font-size:2.64583px;font-family:Roboto;-inkscape-font-specification:'Roboto Light';fill:#ffffff">Desenvolupament:
</tspan></tspan><tspan
           x="-115.23047"
           y="-75.17413"><tspan
             style="font-style:normal;font-variant:normal;font-weight:300;font-stretch:normal;font-size:2.64583px;font-family:Roboto;-inkscape-font-specification:'Roboto Light';fill:#ffffff">
</tspan></tspan><tspan
           x="-115.23047"
           y="-71.798703"><tspan
             style="font-style:normal;font-variant:normal;font-weight:300;font-stretch:normal;font-size:2.64583px;font-family:Roboto;-inkscape-font-specification:'Roboto Light';fill:#ffffff">Estil visual:
</tspan></tspan><tspan
           x="-115.23047"
           y="-68.423276"><tspan
             style="font-style:normal;font-variant:normal;font-weight:300;font-stretch:normal;font-size:2.64583px;font-family:Roboto;-inkscape-font-specification:'Roboto Light';fill:#ffffff">
</tspan></tspan><tspan
           x="-115.23047"
           y="-65.047848"><tspan
             style="font-style:normal;font-variant:normal;font-weight:300;font-stretch:normal;font-size:2.64583px;font-family:Roboto;-inkscape-font-specification:'Roboto Light';fill:#ffffff">Coordinació:</tspan></tspan></text>
      <path
         id="path1184"
         style="fill:#333333;stroke-width:0.727604;stroke-linecap:round;stroke-linejoin:round"
         d="m -157.90253,-48.772102 a 4.3656249,4.3656249 0 0 0 -4.36563,4.365625 4.3656249,4.3656249 0 0 0 4.36563,4.365625 4.3656249,4.3656249 0 0 0 4.36562,-4.365625 4.3656249,4.3656249 0 0 0 -4.36562,-4.365625 z m -0.03,0.396875 a 3.96875,3.96875 0 0 1 0.03,0 3.96875,3.96875 0 0 1 3.96875,3.96875 3.96875,3.96875 0 0 1 -3.96875,3.96875 3.96875,3.96875 0 0 1 -3.96875,-3.96875 3.96875,3.96875 0 0 1 3.93877,-3.96875 z" />
      <rect
         style="fill:#000000;stroke-width:0.653563;stroke-linecap:round;stroke-linejoin:round"
         id="rect1186"
         width="7.9375"
         height="1.3229166"
         x="-161.87131"
         y="-141.43285"
         ry="0.66145831" />
      <circle
         style="fill:#000000;stroke-width:0.453572;stroke-linecap:round;stroke-linejoin:round"
         id="circle1188"
         cx="-157.90256"
         cy="-143.95595"
         r="0.66145831" />
      <circle
         cy="-140.77139"
         cx="-165.24474"
         id="circle1190"
         style="opacity:0.588235;fill:#666666;stroke-width:0.725714;stroke-linecap:round;stroke-linejoin:round"
         r="1.0583333" />
      <path
         id="path1192"
         style="opacity:0.303922;fill:#e6e6e6;stroke-width:0.661458;stroke-linecap:round;stroke-linejoin:round"
         d="m -161.70902,-45.529921 a 3.96875,3.96875 0 0 0 -0.16226,1.123444 3.96875,3.96875 0 0 0 3.96875,3.96875 3.96875,3.96875 0 0 0 3.96875,-3.96875 3.96875,3.96875 0 0 0 -0.16227,-1.123444 7.0114582,7.0114582 0 0 1 -3.80648,1.123444 7.0114582,7.0114582 0 0 1 -3.80649,-1.123444 z" />
      <path
         id="path1194"
         style="fill:#666666;stroke-width:0.653563;stroke-linecap:round;stroke-linejoin:round"
         d="m -161.83769,-140.97009 c -0.0198,0.0631 -0.0336,0.12918 -0.0336,0.19895 0,0.36645 0.29501,0.66146 0.66146,0.66146 h 6.61458 c 0.36644,0 0.66146,-0.29501 0.66146,-0.66146 0,-0.0698 -0.0138,-0.1359 -0.0336,-0.19895 -0.0843,0.2682 -0.33112,0.46302 -0.62787,0.46302 h -6.61458 c -0.29677,0 -0.54356,-0.19482 -0.62787,-0.46302 z" />
      <path
         id="path1196"
         style="fill:#666666;stroke-width:0.453573;stroke-linecap:round;stroke-linejoin:round"
         d="m -158.55211,-144.07998 a 0.6614583,0.6614583 0 0 0 -0.0119,0.12403 0.6614583,0.6614583 0 0 0 0.66146,0.66145 0.6614583,0.6614583 0 0 0 0.66146,-0.66145 0.6614583,0.6614583 0 0 0 -0.0119,-0.12351 0.6614583,0.6614583 0 0 1 -0.64957,0.53692 0.6614583,0.6614583 0 0 1 -0.64957,-0.53744 z" />
      <path
         id="path1198"
         style="opacity:0.588235;fill:#cccccc;stroke-width:0.725715;stroke-linecap:round;stroke-linejoin:round"
         d="m -166.27101,-141.029 a 1.0583333,1.0583333 0 0 0 -0.032,0.25735 1.0583333,1.0583333 0 0 0 1.05833,1.05885 1.0583333,1.0583333 0 0 0 1.05833,-1.05885 1.0583333,1.0583333 0 0 0 -0.032,-0.25684 1.0583333,1.0583333 0 0 1 -1.02629,0.80099 1.0583333,1.0583333 0 0 1 -1.02629,-0.8015 z" />
      <text
         xml:space="preserve"
         id="text1343"
         style="font-style:normal;font-variant:normal;font-weight:normal;font-stretch:normal;font-size:4.7625px;line-height:0.95;font-family:Roboto;-inkscape-font-specification:Roboto;letter-spacing:0px;word-spacing:0px;white-space:pre;shape-inside:url(#rect1345);fill:#e6e6e6;"
         x="9.8319578"
         y="0"
         transform="matrix(1.1809904,0,0,1.1809904,154.62054,83.510171)"><tspan
           x="-282.66948"
           y="-175.21711"><tspan
             style="font-style:normal;font-variant:normal;font-weight:300;font-stretch:normal;font-family:Roboto;-inkscape-font-specification:'Roboto Light';text-align:center;text-anchor:middle;fill:#e6e6e6">Llegir en xarxa</tspan></tspan></text>
    </g>
    <flowRoot
       xml:space="preserve"
       id="flowRoot1517"><flowRegion
         id="flowRegion1507"><text
   style="font-size:10.5833px;line-height:1.25;font-family:Helvetica;-inkscape-font-specification:'Helvetica, Normal';letter-spacing:0px;word-spacing:0px;white-space:pre;shape-inside:url(#rect1355);"
   xml:space="preserve"
   id="text1505"><tspan
     x="-113.00195"
     y="-133.40259"><tspan>Lorem ips</tspan></tspan></text>
  </flowRegion><flowPara
         id="flowPara1509">Lorem ipsum dolor sit amet, consectetuer adipiscing elit. Pellentesque ac turpis. Pellentesque ac turpis. Nam laoreet dui sed magna. Phasellus auctor enim eget sem. Aliquam vel nibh. In tempus urna. Mauris et dolor. Cras ac enim vel dui vestibulum suscipit. Ut venenatis. Proin diam augue, semper vitae, varius et, viverra id, felis. Maecenas viverra. Duis sem velit, ultrices et, fermentum auctor, rhoncus ut, ligula. Nam nisl quam, posuere non, volutpat sed, semper vitae, magna. Donec rutrum venenatis dui. Nam molestie nisl at metus. Morbi volutpat. Class aptent taciti sociosqu ad litora torquent per conubia nostra, per inceptos hymenaeos. Sed non ipsum. Donec at diam a tellus dignissim vestibulum. </flowPara><flowPara
         id="flowPara1511" /><flowPara
         id="flowPara1513">Pellentesque suscipit accumsan massa. Integer accumsan. Quisque facilisis, urna sit amet pulvinar mollis, purus arcu adipiscing velit, non condimentum diam purus eu massa. Sed quis elit. Donec ut purus. Nulla facilisi. Praesent semper, neque vel condimentum hendrerit, lectus elit pretiumligula, nec consequat nisl velit at dui. Curabitur lorem risus, sagittis vitae, accumsan a, iaculis id, metus. Vestibulum ante ipsum primis in faucibus orci luctus et ultrices posuere cubilia Curae; Donec gravida, ante vel ornare lacinia, orci enim porta est, eget sollicitudin lectus lectus eget lacus. Integer risus velit, facilisis eget, viverra et, venenatis id, leo. Nam rhoncus, lectus vel hendrerit congue, nisl lorem feugiat ante, in fermentum erat nulla tristique arcu. Integer risus velit, facilisis eget, viverra et, venenatis id, leo. Donec at diam a tellus dignissim vestibulum. Morbi volutpat. Mauris urna sem, suscipit vitae, dignissim id, ultrices sed, nunc. Nunc metus. Suspendisse potenti. Cras ac enim vel dui vestibulum suscipit. Nam sed nisl nec elit suscipit ullamcorper. Sed dolor. </flowPara><flowPara
         id="flowPara1515" /></flowRoot>
    <circle
       style="fill:#b3b3b3;stroke:#ffffff;stroke-width:0.264583;stroke-linecap:round;stroke-linejoin:round"
       id="path3169"
       cx="-195.75844"
       cy="-149.9086"
       r="2.7535472" />
    <circle
       style="fill:#b3b3b3;stroke:#ffffff;stroke-width:0.264583;stroke-linecap:round;stroke-linejoin:round"
       id="circle3171"
       cx="-150.56894"
       cy="-143.18445"
       r="2.7535472" />
    <path
       style="fill:none;fill-rule:evenodd;stroke:#be2d2d;stroke-width:0.79375;stroke-linecap:round;stroke-linejoin:miter;stroke-miterlimit:4;stroke-dasharray:none;stroke-dashoffset:0;stroke-opacity:1;paint-order:markers fill stroke"
       d="m -193.00489,-149.9086 h 21.26928 c 8.15171,0 16.30342,1.99462 19.61896,4.44752"
       id="path3181"
       inkscape:connector-type="orthogonal"
       inkscape:connector-curvature="80"
       inkscape:connection-start="#path3169"
       inkscape:connection-end="#circle3171" />
    <path
       id="path3703"
       style="fill:#333333;stroke-width:0.430826;stroke-linecap:round;stroke-linejoin:round"
       d="m -140.70746,-277.38958 c -5.1229,0 -9.26954,4.14663 -9.26954,9.26954 v 92.58984 c 0,5.1229 4.14682,9.26758 9.26954,9.26758 h 35.70312 c 5.122723,0 9.269533,-4.14468 9.269533,-9.26758 v -92.58984 c 0,-5.12291 -4.14663,-9.26954 -9.269533,-9.26954 z" />
    <path
       id="path3705"
       style="fill:#000000;stroke-width:0.430826;stroke-linecap:round;stroke-linejoin:round"
       d="m -140.70788,-276.72667 h 35.70451 c 4.76777,0 8.606083,3.83831 8.606083,8.60608 v 92.58993 c 0,4.76777 -3.838313,8.60608 -8.606083,8.60608 h -35.70451 c -4.76776,0 -8.60607,-3.83831 -8.60607,-8.60608 v -92.58993 c 0,-4.76777 3.83831,-8.60608 8.60607,-8.60608 z" />
    <path
       id="path3707"
       style="fill:url(#linearGradient3747);fill-opacity:1;stroke:none;stroke-width:0.264583px;stroke-linecap:butt;stroke-linejoin:miter;stroke-opacity:1"
       d="m -132.0907,-276.7268 35.693433,47.71233 v -39.10614 c 0,-4.76777 -3.838423,-8.60619 -8.606193,-8.60619 z" />
    <path
       id="path3709"
       style="fill:#1a1a1a;stroke-width:0.896533;stroke-linecap:round;stroke-linejoin:round"
       d="m -146.6684,-264.50676 a 0.34769376,0.34769376 0 0 0 -0.34766,0.34765 v 84.66602 a 0.34769376,0.34769376 0 0 0 0.34766,0.34766 h 47.625003 a 0.34769376,0.34769376 0 0 0 0.34766,-0.34766 v -84.66602 a 0.34769376,0.34769376 0 0 0 -0.34766,-0.34765 z" />
    <path
       id="path3711"
       style="fill:#333333;fill-opacity:1;stroke-width:0.896533;stroke-linecap:round;stroke-linejoin:round"
       d="m -146.66813,-264.15895 h 47.625003 v 84.66666 h -47.625003 z" />
    <path
       id="path3717"
       style="fill:#333333;stroke-width:0.727604;stroke-linecap:round;stroke-linejoin:round"
       d="m -122.8556,-177.98554 a 4.3656249,4.3656249 0 0 0 -4.36563,4.36562 4.3656249,4.3656249 0 0 0 4.36563,4.36563 4.3656249,4.3656249 0 0 0 4.36562,-4.36563 4.3656249,4.3656249 0 0 0 -4.36562,-4.36562 z m -0.03,0.39687 a 3.96875,3.96875 0 0 1 0.03,0 3.96875,3.96875 0 0 1 3.96875,3.96875 3.96875,3.96875 0 0 1 -3.96875,3.96875 3.96875,3.96875 0 0 1 -3.96875,-3.96875 3.96875,3.96875 0 0 1 3.93877,-3.96875 z" />
    <rect
       style="fill:#000000;stroke-width:0.653563;stroke-linecap:round;stroke-linejoin:round"
       id="rect3719"
       width="7.9375"
       height="1.3229166"
       x="-126.82437"
       y="-270.6463"
       ry="0.66145831" />
    <circle
       style="fill:#000000;stroke-width:0.453572;stroke-linecap:round;stroke-linejoin:round"
       id="circle3721"
       cx="-122.85562"
       cy="-273.1694"
       r="0.66145831" />
    <circle
       cy="-269.98483"
       cx="-130.1978"
       id="circle3723"
       style="opacity:0.588235;fill:#666666;stroke-width:0.725714;stroke-linecap:round;stroke-linejoin:round"
       r="1.0583333" />
    <path
       id="path3725"
       style="opacity:0.303922;fill:#e6e6e6;stroke-width:0.661458;stroke-linecap:round;stroke-linejoin:round"
       d="m -126.66209,-174.74336 a 3.96875,3.96875 0 0 0 -0.16226,1.12344 3.96875,3.96875 0 0 0 3.96875,3.96875 3.96875,3.96875 0 0 0 3.96875,-3.96875 3.96875,3.96875 0 0 0 -0.16227,-1.12344 7.0114582,7.0114582 0 0 1 -3.80648,1.12344 7.0114582,7.0114582 0 0 1 -3.80649,-1.12344 z" />
    <path
       id="path3727"
       style="fill:#666666;stroke-width:0.653563;stroke-linecap:round;stroke-linejoin:round"
       d="m -126.79076,-270.18353 c -0.0198,0.0631 -0.0336,0.12918 -0.0336,0.19895 0,0.36645 0.29501,0.66146 0.66146,0.66146 h 6.61458 c 0.36644,0 0.66146,-0.29501 0.66146,-0.66146 0,-0.0698 -0.0138,-0.1359 -0.0336,-0.19895 -0.0843,0.2682 -0.33112,0.46302 -0.62787,0.46302 h -6.61458 c -0.29677,0 -0.54356,-0.19482 -0.62787,-0.46302 z" />
    <path
       id="path3729"
       style="fill:#666666;stroke-width:0.453573;stroke-linecap:round;stroke-linejoin:round"
       d="m -123.50518,-273.29342 a 0.6614583,0.6614583 0 0 0 -0.0119,0.12403 0.6614583,0.6614583 0 0 0 0.66146,0.66145 0.6614583,0.6614583 0 0 0 0.66146,-0.66145 0.6614583,0.6614583 0 0 0 -0.0119,-0.12351 0.6614583,0.6614583 0 0 1 -0.64957,0.53692 0.6614583,0.6614583 0 0 1 -0.64957,-0.53744 z" />
    <path
       id="path3731"
       style="opacity:0.588235;fill:#cccccc;stroke-width:0.725715;stroke-linecap:round;stroke-linejoin:round"
       d="m -131.22408,-270.24244 a 1.0583333,1.0583333 0 0 0 -0.032,0.25735 1.0583333,1.0583333 0 0 0 1.05833,1.05885 1.0583333,1.0583333 0 0 0 1.05833,-1.05885 1.0583333,1.0583333 0 0 0 -0.032,-0.25684 1.0583333,1.0583333 0 0 1 -1.02629,0.80099 1.0583333,1.0583333 0 0 1 -1.02629,-0.8015 z" />
    <circle
       style="fill:#b3b3b3;stroke:#ffffff;stroke-width:0.264583;stroke-linecap:round;stroke-linejoin:round"
       id="circle3741"
       cx="-146.87012"
       cy="-169.26605"
       r="2.7535472" />
    <circle
       style="fill:#b3b3b3;stroke:#ffffff;stroke-width:0.264583;stroke-linecap:round;stroke-linejoin:round"
       id="circle3767"
       cx="-195.75844"
       cy="-161.418"
       r="2.7535472" />
    <path
       style="fill:none;fill-rule:evenodd;stroke:#be2d2d;stroke-width:0.79375;stroke-linecap:round;stroke-linejoin:miter;stroke-opacity:1;stroke-miterlimit:4;stroke-dasharray:none"
       d="m -148.16534,-166.8368 c -3.13746,2.96621 -11.50445,5.4188 -19.87144,5.4188 h -24.96811"
       id="path3769"
       inkscape:connector-type="orthogonal"
       inkscape:connector-curvature="80"
       inkscape:connection-start="#circle3741"
       inkscape:connection-end="#circle3767"
       sodipodi:nodetypes="cssc" />
  </g>
  <g
     id="layer1"
     inkscape:groupmode="layer"
     inkscape:label="UI Layout"
     style="display:none"
     sodipodi:insensitive="true">
    <rect
       rx="0"
       ry="0"
       y="-88.503128"
       x="-262.73123"
       height="95.286949"
       width="59.96217"
       id="rect1079"
       style="fill:#cccccc;stroke-width:7.99999;stroke-linecap:round;stroke-linejoin:round" />
    <text
       style="font-style:normal;font-variant:normal;font-weight:normal;font-stretch:normal;font-size:10.5833px;line-height:1.25;font-family:Helvetica75;-inkscape-font-specification:Helvetica75;letter-spacing:0px;word-spacing:0px;white-space:pre;shape-inside:url(#rect835);fill:#000000;fill-opacity:1;stroke:none;"
       id="text833"
       xml:space="preserve"><tspan
         x="-369.66016"
         y="-142.19079"><tspan
           style="font-style:normal;font-variant:normal;font-weight:normal;font-stretch:normal;font-family:Helvetica75;-inkscape-font-specification:Helvetica75">lostphoneUI elements</tspan></tspan></text>
    <text
       transform="matrix(0.63847068,0,0,0.63847068,-124.60916,29.276171)"
       xml:space="preserve"
       id="text833-5"
       style="font-style:normal;font-variant:normal;font-weight:normal;font-stretch:normal;font-size:10.5833px;line-height:1.25;font-family:Helvetica75;-inkscape-font-specification:Helvetica75;letter-spacing:0px;word-spacing:0px;white-space:pre;shape-inside:url(#rect835-6);fill:#000000;fill-opacity:1;stroke:none;"><tspan
         x="-369.66016"
         y="-142.19079"><tspan
           style="font-style:normal;font-variant:normal;font-weight:normal;font-stretch:normal;font-family:Helvetica75;-inkscape-font-specification:Helvetica75">Dialog Template</tspan></tspan></text>
    <rect
       style="fill:#666666;stroke-width:9.95521;stroke-linecap:round;stroke-linejoin:round"
       id="rect839-1"
       width="62.380981"
       height="41.402256"
       x="-364.23389"
       y="-110.217" />
    <rect
       y="-122.54308"
       x="-280.633"
       height="16.169806"
       width="64.679222"
       id="rect902"
       style="fill:#b3b3b3;stroke-width:7.99999;stroke-linecap:round;stroke-linejoin:round" />
    <text
       style="font-style:normal;font-variant:normal;font-weight:normal;font-stretch:normal;font-size:10.5833px;line-height:1.25;font-family:Helvetica75;-inkscape-font-specification:Helvetica75;letter-spacing:0px;word-spacing:0px;white-space:pre;shape-inside:url(#rect835-6-5);fill:#000000;fill-opacity:1;stroke:none;"
       id="text833-5-5"
       xml:space="preserve"
       transform="matrix(0.63847067,0,0,0.63847067,-44.383022,-8.1538677)"><tspan
         x="-369.66016"
         y="-142.19079"><tspan
           style="font-style:normal;font-variant:normal;font-weight:normal;font-stretch:normal;font-family:Helvetica75;-inkscape-font-specification:Helvetica75">Notification Template</tspan></tspan></text>
    <rect
       y="-119.87038"
       x="-278.36121"
       height="4.6772165"
       width="4.9444861"
       id="rect933"
       style="fill:#666666;stroke-width:7.99999;stroke-linecap:round;stroke-linejoin:round" />
    <text
       transform="translate(18.575232,-34.344134)"
       style="font-style:normal;font-variant:normal;font-weight:normal;font-stretch:normal;font-size:3.175px;line-height:1.25;font-family:Helvetica75;-inkscape-font-specification:Helvetica75;letter-spacing:0px;word-spacing:0px;white-space:pre;shape-inside:url(#rect937);fill:#000000;fill-opacity:1;stroke:none;"
       id="text935"
       xml:space="preserve"><tspan
         x="-288.91797"
         y="-82.866016"><tspan
           style="font-style:normal;font-variant:normal;font-weight:normal;font-stretch:normal;font-family:Helvetica;-inkscape-font-specification:Helvetica">lorem ipsum dolor est... lorem dolor </tspan></tspan><tspan
         x="-288.91797"
         y="-78.830211"><tspan
           style="font-style:normal;font-variant:normal;font-weight:normal;font-stretch:normal;font-family:Helvetica;-inkscape-font-specification:Helvetica">ipsum dolor est dolor est.</tspan></tspan></text>
    <path
       sodipodi:nodetypes="ccccccc"
       transform="scale(0.26458333)"
       d="m -741.95703,-462.90234 v 52.46093 l -16.91992,8.65235 45.20313,0.12695 216.17382,-0.12695 v -61.11328 z"
       style="fill:#1a1a1a;stroke-width:30.2362;stroke-linecap:round;stroke-linejoin:round"
       id="rect902-2" />
    <text
       xml:space="preserve"
       id="text935-5"
       style="font-style:normal;font-variant:normal;font-weight:normal;font-stretch:normal;font-size:3.175px;line-height:1.25;font-family:Helvetica75;-inkscape-font-specification:Helvetica75;letter-spacing:0px;word-spacing:0px;white-space:pre;shape-inside:url(#rect937-3);fill:#f9f9f9;fill-opacity:1;stroke:none;"
       transform="translate(96.202439,-33.399841)"><tspan
         x="-288.91797"
         y="-82.866016"><tspan
           style="font-style:normal;font-variant:normal;font-weight:normal;font-stretch:normal;font-family:Helvetica;-inkscape-font-specification:Helvetica;fill:#f9f9f9">lorem ipsum dolor est... lorem dolor </tspan></tspan><tspan
         x="-288.91797"
         y="-78.830211"><tspan
           style="font-style:normal;font-variant:normal;font-weight:normal;font-stretch:normal;font-family:Helvetica;-inkscape-font-specification:Helvetica;fill:#f9f9f9">ipsum dolor est dolor est.</tspan></tspan></text>
    <g
       transform="matrix(0.65845739,0,0,0.65845739,-130.32608,-74.591064)"
       id="g1126">
      <path
         sodipodi:nodetypes="ccccccc"
         d="m -175.52262,-183.88475 v 26.70923 l -4.47673,2.28927 11.96,0.0336 57.19599,-0.0336 v -28.9985 z"
         style="fill:#1a1a1a;stroke-width:7.99999;stroke-linecap:round;stroke-linejoin:round"
         id="rect902-2-3" />
      <text
         xml:space="preserve"
         id="text935-5-2"
         style="font-style:normal;font-variant:normal;font-weight:normal;font-stretch:normal;font-size:2.91042px;line-height:1.25;font-family:Helvetica75;-inkscape-font-specification:Helvetica75;letter-spacing:0px;word-spacing:0px;white-space:pre;shape-inside:url(#rect937-3-6);fill:#f9f9f9;fill-opacity:1;stroke:none;"
         transform="translate(117.52382,-94.273798)"><tspan
           x="-288.91797"
           y="-83.109925"><tspan
             style="font-style:normal;font-variant:normal;font-weight:normal;font-stretch:normal;font-size:2.91042px;font-family:Minecraftia;-inkscape-font-specification:Minecraftia;fill:#ff00ff">lorem ipsum dolor est...</tspan><tspan
             style="font-style:normal;font-variant:normal;font-weight:normal;font-stretch:normal;font-size:2.91042px;font-family:Minecraftia;-inkscape-font-specification:Minecraftia"> lorem </tspan></tspan><tspan
           x="-288.91797"
           y="-79.335473"><tspan
             style="font-style:normal;font-variant:normal;font-weight:normal;font-stretch:normal;font-size:2.91042px;font-family:Minecraftia;-inkscape-font-specification:Minecraftia">dolor ipsum dolor est dolor est.
</tspan></tspan><tspan
           x="-288.91797"
           y="-75.561021"><tspan
             style="font-style:normal;font-variant:normal;font-weight:normal;font-stretch:normal;font-size:2.91042px;font-family:Minecraftia;-inkscape-font-specification:Minecraftia">lorem ipsum... dolor est... ipsum </tspan></tspan><tspan
           x="-288.91797"
           y="-71.786569"><tspan
             style="font-style:normal;font-variant:normal;font-weight:normal;font-stretch:normal;font-size:2.91042px;font-family:Minecraftia;-inkscape-font-specification:Minecraftia">dolor est dolor ipsum dolor </tspan></tspan><tspan
           x="-288.91797"
           y="-68.012117"><tspan
             style="font-style:normal;font-variant:normal;font-weight:normal;font-stretch:normal;font-size:2.91042px;font-family:Minecraftia;-inkscape-font-specification:Minecraftia">dolor ipsum</tspan></tspan></text>
    </g>
    <rect
       ry="1.3418162"
       y="-75.547989"
       x="-260.18936"
       height="8.4572163"
       width="55.326195"
       id="rect1040"
       style="fill:#f9f9f9;stroke-width:7.99999;stroke-linecap:round;stroke-linejoin:round" />
    <path
       sodipodi:nodetypes="cccccccc"
       d="m -213.02814,-73.97481 c -1.33821,2.57e-4 -2.42289,1.085221 -2.42279,2.423437 -1e-4,1.338216 1.08458,2.423181 2.42279,2.423438 l 3.52329,0.01495 c 1.33847,1.03e-4 2.42354,-1.084968 2.42344,-2.423441 1e-4,-1.338469 -1.08497,-2.423541 -2.42344,-2.423438 l -3.52329,-0.01495 z"
       style="fill:#999999;stroke-width:10.6574;stroke-linecap:round;stroke-linejoin:round"
       id="path1044-3" />
    <circle
       r="2.2597198"
       cy="-71.581093"
       cx="-212.95363"
       id="path1044-3-6"
       style="fill:#f9f9f9;stroke-width:9.93821;stroke-linecap:round;stroke-linejoin:round" />
    <rect
       ry="1.4070284"
       y="-74.457985"
       x="-258.26639"
       height="6.0301218"
       width="6.1846356"
       id="rect1081"
       style="fill:#ff6600;stroke-width:8.9899;stroke-linecap:round;stroke-linejoin:round" />
    <text
       transform="translate(30.776086,-10.383421)"
       style="font-style:normal;font-variant:normal;font-weight:normal;font-stretch:normal;font-size:3.70417px;line-height:1.25;font-family:Helvetica75;-inkscape-font-specification:Helvetica75;letter-spacing:0px;word-spacing:0px;white-space:pre;shape-inside:url(#rect1085);fill:#4d4d4d;"
       id="text1083"
       xml:space="preserve"><tspan
         x="-280.82031"
         y="-59.821546"><tspan
           style="shape-inside:url(#rect1085)">Mode avió</tspan></tspan></text>
    <rect
       style="fill:#f9f9f9;stroke-width:7.99999;stroke-linecap:round;stroke-linejoin:round"
       id="rect1040-5"
       width="55.326195"
       height="8.4572163"
       x="-260.18936"
       y="-66.561607"
       ry="1.3418162" />
    <path
       id="path1044-3-9"
       style="fill:#008000;stroke-width:10.6574;stroke-linecap:round;stroke-linejoin:round"
       d="m -213.02814,-64.988428 c -1.33821,2.57e-4 -2.42289,1.085221 -2.42279,2.423437 -1e-4,1.338216 1.08458,2.423181 2.42279,2.423438 l 3.5233,0.01495 c 1.33846,1.03e-4 2.42353,-1.084968 2.42343,-2.423441 1e-4,-1.338469 -1.08497,-2.423541 -2.42343,-2.423438 l -3.5233,-0.01495 z"
       sodipodi:nodetypes="cccccccc" />
    <circle
       style="fill:#f9f9f9;stroke-width:9.9382;stroke-linecap:round;stroke-linejoin:round"
       id="path1044-3-6-2"
       cx="-209.5802"
       cy="-62.594711"
       r="2.2597198" />
    <rect
       style="fill:#0000ff;stroke-width:8.98991;stroke-linecap:round;stroke-linejoin:round"
       id="rect1081-8"
       width="6.1846356"
       height="6.0301218"
       x="-258.26639"
       y="-65.471603"
       ry="1.4070284" />
    <text
       xml:space="preserve"
       id="text1083-5"
       style="font-style:normal;font-variant:normal;font-weight:normal;font-stretch:normal;font-size:3.70417px;line-height:1.25;font-family:Helvetica75;-inkscape-font-specification:Helvetica75;letter-spacing:0px;word-spacing:0px;white-space:pre;shape-inside:url(#rect1085-3);fill:#333333;"
       transform="translate(30.776083,-1.3970384)"><tspan
         x="-280.82031"
         y="-59.821546"><tspan
           style="font-style:normal;font-variant:normal;font-weight:normal;font-stretch:normal;font-family:Helvetica75;-inkscape-font-specification:Helvetica75;fill:#333333">Localització</tspan></tspan></text>
    <text
       xml:space="preserve"
       id="text1083-8"
       style="font-size:3.70417px;line-height:1.25;font-family:Helvetica;-inkscape-font-specification:'Helvetica, Normal';letter-spacing:0px;word-spacing:0px;white-space:pre;shape-inside:url(#rect1085-6);fill:#808080;"
       transform="matrix(1.0688531,0,0,1.0688531,39.901324,-13.151094)"><tspan
         x="-280.82031"
         y="-59.821546"><tspan
           style="font-style:normal;font-variant:normal;font-weight:normal;font-stretch:normal;font-family:Helvetica75;-inkscape-font-specification:Helvetica75;fill:#808080">Configuració del sistema</tspan></tspan></text>
    <rect
       style="fill:#f9f9f9;stroke-width:7.99999;stroke-linecap:round;stroke-linejoin:round"
       id="rect1040-0"
       width="55.326195"
       height="8.4572163"
       x="-259.96725"
       y="-46.689507"
       ry="1.3418162" />
    <path
       id="path1044-3-99"
       style="fill:#999999;stroke-width:10.6574;stroke-linecap:round;stroke-linejoin:round"
       d="m -212.80604,-45.116329 c -1.33821,2.57e-4 -2.42289,1.085221 -2.42279,2.423437 -1e-4,1.338216 1.08458,2.423181 2.42279,2.423438 l 3.52329,0.01495 c 1.33847,1.03e-4 2.42354,-1.084968 2.42344,-2.423441 1e-4,-1.338469 -1.08497,-2.423541 -2.42344,-2.423438 l -3.52329,-0.01495 z"
       sodipodi:nodetypes="cccccccc" />
    <circle
       style="fill:#f9f9f9;stroke-width:9.9382;stroke-linecap:round;stroke-linejoin:round"
       id="path1044-3-6-1"
       cx="-212.73154"
       cy="-42.72261"
       r="2.2597198" />
    <rect
       style="fill:#800080;stroke-width:8.98991;stroke-linecap:round;stroke-linejoin:round"
       id="rect1081-2"
       width="6.1846356"
       height="6.0301218"
       x="-258.04428"
       y="-45.599503"
       ry="1.4070284" />
    <text
       xml:space="preserve"
       id="text1083-4"
       style="font-style:normal;font-variant:normal;font-weight:normal;font-stretch:normal;font-size:3.70417px;line-height:1.25;font-family:Helvetica75;-inkscape-font-specification:Helvetica75;letter-spacing:0px;word-spacing:0px;white-space:pre;shape-inside:url(#rect1085-8);fill:#333333;"
       transform="translate(30.998176,18.475061)"><tspan
         x="-280.82031"
         y="-59.821546"><tspan
           style="font-style:normal;font-variant:normal;font-weight:normal;font-stretch:normal;font-family:Helvetica75;-inkscape-font-specification:Helvetica75;fill:#333333">Lorem ipsum</tspan></tspan></text>
    <rect
       ry="1.3418162"
       y="-37.703125"
       x="-259.96725"
       height="8.4572163"
       width="55.326195"
       id="rect1040-5-7"
       style="fill:#f9f9f9;stroke-width:7.99999;stroke-linecap:round;stroke-linejoin:round" />
    <path
       sodipodi:nodetypes="cccccccc"
       d="m -212.80604,-36.129946 c -1.33821,2.57e-4 -2.42289,1.085221 -2.42279,2.423437 -1e-4,1.338216 1.08458,2.423181 2.42279,2.423438 l 3.5233,0.01495 c 1.33846,1.03e-4 2.42353,-1.084968 2.42343,-2.423441 1e-4,-1.338469 -1.08497,-2.423541 -2.42343,-2.423438 l -3.5233,-0.01495 z"
       style="fill:#008000;stroke-width:10.6574;stroke-linecap:round;stroke-linejoin:round"
       id="path1044-3-9-2" />
    <circle
       r="2.2597198"
       cy="-33.736229"
       cx="-209.35811"
       id="path1044-3-6-2-1"
       style="fill:#f9f9f9;stroke-width:9.9382;stroke-linecap:round;stroke-linejoin:round" />
    <rect
       ry="1.4070284"
       y="-36.613121"
       x="-258.04428"
       height="6.0301218"
       width="6.1846356"
       id="rect1081-8-6"
       style="fill:#ffff00;stroke-width:8.98991;stroke-linecap:round;stroke-linejoin:round" />
    <text
       transform="translate(30.998176,27.461443)"
       style="font-style:normal;font-variant:normal;font-weight:normal;font-stretch:normal;font-size:3.70417px;line-height:1.25;font-family:Helvetica75;-inkscape-font-specification:Helvetica75;letter-spacing:0px;word-spacing:0px;white-space:pre;shape-inside:url(#rect1085-3-8);fill:#333333;"
       id="text1083-5-2"
       xml:space="preserve"><tspan
         x="-280.82031"
         y="-59.821546"><tspan
           style="font-style:normal;font-variant:normal;font-weight:normal;font-stretch:normal;font-family:Helvetica75;-inkscape-font-specification:Helvetica75;fill:#333333">Dolor est</tspan></tspan></text>
    <text
       transform="matrix(1.0688531,0,0,1.0688531,40.223724,15.787035)"
       style="font-size:3.70417px;line-height:1.25;font-family:Helvetica;-inkscape-font-specification:'Helvetica, Normal';letter-spacing:0px;word-spacing:0px;white-space:pre;shape-inside:url(#rect1085-6-5);fill:#808080;"
       id="text1083-8-4"
       xml:space="preserve"><tspan
         x="-280.82031"
         y="-59.821546"><tspan
           style="font-style:normal;font-variant:normal;font-weight:normal;font-stretch:normal;font-family:Helvetica75;-inkscape-font-specification:Helvetica75">General</tspan></tspan></text>
    <rect
       style="fill:#f9f9f9;stroke-width:7.99999;stroke-linecap:round;stroke-linejoin:round"
       id="rect1040-5-7-4"
       width="55.326195"
       height="8.4572163"
       x="-259.96725"
       y="-28.716742"
       ry="1.3418162" />
    <text
       xml:space="preserve"
       id="text1083-5-2-9"
       style="font-style:normal;font-variant:normal;font-weight:normal;font-stretch:normal;font-size:3.70417px;line-height:1.25;font-family:Helvetica75;-inkscape-font-specification:Helvetica75;letter-spacing:0px;word-spacing:0px;white-space:pre;shape-inside:url(#rect1085-3-8-7);fill:#333333;"
       transform="translate(23.060664,36.447827)"><tspan
         x="-280.82031"
         y="-59.821546"><tspan
           style="font-style:normal;font-variant:normal;font-weight:normal;font-stretch:normal;font-family:Helvetica75;-inkscape-font-specification:Helvetica75;fill:#333333">Idioma</tspan></tspan></text>
    <path
       id="path1302"
       d="m -210.87381,-26.865253 3.67379,2.219579 -3.67379,2.143041"
       style="fill:none;stroke:#808080;stroke-width:0.43296;stroke-linecap:butt;stroke-linejoin:miter;stroke-miterlimit:4;stroke-dasharray:none;stroke-opacity:1" />
    <rect
       ry="1.3418162"
       y="-19.6506"
       x="-259.84286"
       height="8.4572163"
       width="55.326195"
       id="rect1040-5-7-4-8"
       style="fill:#f9f9f9;stroke-width:7.99999;stroke-linecap:round;stroke-linejoin:round" />
    <text
       transform="translate(39.642854,45.496102)"
       style="font-style:normal;font-variant:normal;font-weight:normal;font-stretch:normal;font-size:3.70417px;line-height:1.25;font-family:Helvetica75;-inkscape-font-specification:Helvetica75;letter-spacing:0px;word-spacing:0px;white-space:pre;shape-inside:url(#rect1085-3-8-7-4);fill:#333333;"
       id="text1083-5-2-9-2"
       xml:space="preserve"><tspan
         x="-280.82031"
         y="-59.821546"><tspan
           style="fill:#333333">Reiniciar</tspan></tspan></text>
    <rect
       style="fill:#f9f9f9;stroke-width:7.99999;stroke-linecap:round;stroke-linejoin:round"
       id="rect1040-5-7-4-8-0"
       width="55.326195"
       height="8.4572163"
       x="-259.84286"
       y="-10.664218"
       ry="1.3418162" />
    <text
       xml:space="preserve"
       id="text1083-5-2-9-2-4"
       style="font-style:normal;font-variant:normal;font-weight:normal;font-stretch:normal;font-size:3.70417px;line-height:1.25;font-family:Helvetica75;-inkscape-font-specification:Helvetica75;letter-spacing:0px;word-spacing:0px;white-space:pre;shape-inside:url(#rect1085-3-8-7-4-4);fill:#ff0000;"
       transform="translate(41.953725,53.915092)"><tspan
         x="-280.82031"
         y="-59.821546"><tspan
           style="fill:#ff0000">Borrar</tspan></tspan></text>
    <rect
       style="fill:#cccccc;stroke-width:7.99999;stroke-linecap:round;stroke-linejoin:round"
       id="rect1079-8"
       width="59.962166"
       height="95.286949"
       x="-189.92172"
       y="-87.860153"
       ry="0"
       rx="0" />
    <rect
       ry="1.3418162"
       y="-79.767143"
       x="-187.60371"
       height="8.4572163"
       width="55.326195"
       id="rect1040-5-7-4-6"
       style="fill:#f9f9f9;stroke-width:7.99999;stroke-linecap:round;stroke-linejoin:round" />
    <text
       transform="translate(96.217938,-14.470289)"
       style="font-style:normal;font-variant:normal;font-weight:normal;font-stretch:normal;font-size:3.70417px;line-height:1.25;font-family:Helvetica75;-inkscape-font-specification:Helvetica75;letter-spacing:0px;word-spacing:0px;white-space:pre;shape-inside:url(#rect1085-3-8-7-9);fill:#333333;"
       id="text1083-5-2-9-3"
       xml:space="preserve"><tspan
         x="-280.82031"
         y="-59.821546"><tspan>Català</tspan></tspan></text>
    <rect
       style="fill:#f9f9f9;stroke-width:7.99999;stroke-linecap:round;stroke-linejoin:round"
       id="rect1040-5-7-4-6-1"
       width="55.326195"
       height="8.4572163"
       x="-187.60371"
       y="-70.780762"
       ry="1.3418162" />
    <text
       xml:space="preserve"
       id="text1083-5-2-9-3-8"
       style="font-style:normal;font-variant:normal;font-weight:normal;font-stretch:normal;font-size:3.70417px;line-height:1.25;font-family:Helvetica75;-inkscape-font-specification:Helvetica75;letter-spacing:0px;word-spacing:0px;white-space:pre;shape-inside:url(#rect1085-3-8-7-9-4);fill:#333333;"
       transform="translate(96.217925,-5.483912)"><tspan
         x="-280.82031"
         y="-59.821546"><tspan>Castellà</tspan></tspan></text>
    <rect
       ry="1.3418162"
       y="-61.79438"
       x="-187.60371"
       height="8.4572163"
       width="55.326195"
       id="rect1040-5-7-4-6-1-6"
       style="fill:#f9f9f9;stroke-width:7.99999;stroke-linecap:round;stroke-linejoin:round" />
    <text
       transform="translate(96.217928,3.5024656)"
       style="font-style:normal;font-variant:normal;font-weight:normal;font-stretch:normal;font-size:3.70417px;line-height:1.25;font-family:Helvetica75;-inkscape-font-specification:Helvetica75;letter-spacing:0px;word-spacing:0px;white-space:pre;shape-inside:url(#rect1085-3-8-7-9-4-8);fill:#333333;"
       id="text1083-5-2-9-3-8-4"
       xml:space="preserve"><tspan
         x="-280.82031"
         y="-59.821546"><tspan>Anglès</tspan></tspan></text>
    <rect
       style="fill:#f9f9f9;stroke-width:7.99999;stroke-linecap:round;stroke-linejoin:round"
       id="rect1040-5-7-4-6-1-6-7"
       width="55.326195"
       height="8.4572163"
       x="-187.60371"
       y="-52.807999"
       ry="1.3418162" />
    <text
       xml:space="preserve"
       id="text1083-5-2-9-3-8-4-5"
       style="font-style:normal;font-variant:normal;font-weight:normal;font-stretch:normal;font-size:3.70417px;line-height:1.25;font-family:Helvetica75;-inkscape-font-specification:Helvetica75;letter-spacing:0px;word-spacing:0px;white-space:pre;shape-inside:url(#rect1085-3-8-7-9-4-8-8);fill:#333333;"
       transform="translate(96.350211,12.488843)"><tspan
         x="-280.82031"
         y="-59.821546"><tspan>Francès</tspan></tspan></text>
    <rect
       ry="1.3418162"
       y="-43.821617"
       x="-187.60371"
       height="8.4572163"
       width="55.326195"
       id="rect1040-5-7-4-6-1-6-7-7"
       style="fill:#f9f9f9;stroke-width:7.99999;stroke-linecap:round;stroke-linejoin:round" />
    <text
       transform="translate(96.217932,21.475225)"
       style="font-style:normal;font-variant:normal;font-weight:normal;font-stretch:normal;font-size:3.70417px;line-height:1.25;font-family:Helvetica75;-inkscape-font-specification:Helvetica75;letter-spacing:0px;word-spacing:0px;white-space:pre;shape-inside:url(#rect1085-3-8-7-9-4-8-8-5);fill:#333333;"
       id="text1083-5-2-9-3-8-4-5-3"
       xml:space="preserve"><tspan
         x="-280.82031"
         y="-59.821546"><tspan>Alemany</tspan></tspan></text>
    <text
       xml:space="preserve"
       id="text1083-8-4-6"
       style="font-size:3.70417px;line-height:1.25;font-family:Helvetica;-inkscape-font-specification:'Helvetica, Normal';letter-spacing:0px;word-spacing:0px;white-space:pre;shape-inside:url(#rect1085-6-5-2);fill:#808080;"
       transform="matrix(1.0688531,0,0,1.0688531,112.90882,-17.460699)"><tspan
         x="-280.82031"
         y="-59.821546"><tspan
           style="font-style:normal;font-variant:normal;font-weight:normal;font-stretch:normal;font-family:Helvetica75;-inkscape-font-specification:Helvetica75">Idioma</tspan></tspan></text>
    <path
       sodipodi:nodetypes="ccc"
       id="path1603"
       d="m -139.68281,-75.23965 2.49315,1.324674 3.03354,-3.982899"
       style="fill:none;stroke:#008514;stroke-width:0.79375;stroke-linecap:butt;stroke-linejoin:miter;stroke-miterlimit:4;stroke-dasharray:none;stroke-opacity:1" />
    <path
       sodipodi:nodetypes="sssccss"
       d="m -353.97178,-75.951191 h 42.28204 c 1.45106,0 2.61924,-1.862774 2.61924,-2.549875 v -5.03402 h -47.52052 v 5.221109 c 0,0.687101 1.16818,2.362786 2.61924,2.362786 z"
       style="fill:#ffffff;stroke:none;stroke-width:0.507594;stroke-linecap:round;stroke-linejoin:round;stroke-miterlimit:4;stroke-dasharray:none;stroke-opacity:1"
       id="rect1605" />
    <path
       id="rect1605-3"
       style="fill:#ffffff;stroke:none;stroke-width:0.737648;stroke-linecap:round;stroke-linejoin:round;stroke-miterlimit:4;stroke-dasharray:none;stroke-opacity:1"
       d="m -353.97178,-104.26985 h 42.28203 c 1.45106,0 2.61924,1.16818 2.61924,2.61924 v 17.866989 h -47.52051 v -17.866989 c 0,-1.45106 1.16818,-2.61924 2.61924,-2.61924 z"
       sodipodi:nodetypes="sssccss" />
    <text
       y="0"
       x="14.501066"
       style="font-size:3.70417px;line-height:1.25;font-family:Helvetica;-inkscape-font-specification:'Helvetica, Normal';letter-spacing:0px;word-spacing:0px;white-space:pre;shape-inside:url(#rect1625);"
       id="text1623"
       xml:space="preserve"><tspan
         x="-347.76832"
         y="-97.597046"><tspan
           style="text-align:center;text-anchor:middle">Aquesta aplicació </tspan></tspan><tspan
         x="-345.50386"
         y="-92.966835"><tspan
           style="text-align:center;text-anchor:middle">encara no està </tspan></tspan><tspan
         x="-341.59169"
         y="-88.336624"><tspan
           style="text-align:center;text-anchor:middle">disponible</tspan></tspan></text>
    <text
       style="font-size:10.5833px;line-height:1.25;font-family:Helvetica;-inkscape-font-specification:'Helvetica, Normal';letter-spacing:0px;word-spacing:0px;white-space:pre;shape-inside:url(#rect1633);"
       id="text1631"
       xml:space="preserve"><tspan
         style="visibility:hidden"
         x="-343.49414"
         y="-105.43384"><tspan
           dx="0 1.7657837"
           style="font-size:3.175px">aa</tspan></tspan></text>
    <text
       transform="translate(19.446875,49.741667)"
       style="font-size:3.70417px;line-height:1.25;font-family:Helvetica;-inkscape-font-specification:'Helvetica, Normal';letter-spacing:0px;word-spacing:0px;white-space:pre;shape-inside:url(#rect1639);"
       id="text1637"
       xml:space="preserve"><tspan
         x="-362.61133"
         y="-128.61256"><tspan
           style="font-style:normal;font-variant:normal;font-weight:normal;font-stretch:normal;font-family:Helvetica75;-inkscape-font-specification:Helvetica75">ACCEPTAR</tspan></tspan></text>
    <rect
       style="fill:#666666;stroke-width:0.79375;stroke-linecap:round;stroke-linejoin:round"
       id="rect1065"
       width="31.056719"
       height="31.056719"
       x="-119.73675"
       y="-141.62613"
       ry="4.8643055" />
    <text
       xml:space="preserve"
       id="text1083-5-2-9-3-6"
       style="font-style:normal;font-variant:normal;font-weight:normal;font-stretch:normal;font-size:3.70417px;line-height:1.25;font-family:Helvetica75;-inkscape-font-specification:Helvetica75;letter-spacing:0px;word-spacing:0px;white-space:pre;shape-inside:url(#rect1085-3-8-7-9-2);fill:#333333;"
       transform="matrix(1.2013647,0,0,1.2013647,218.04984,-31.179015)"><tspan
         x="-280.82031"
         y="-59.821546"><tspan
           style="font-style:normal;font-variant:normal;font-weight:normal;font-stretch:normal;font-family:Minecraftia;-inkscape-font-specification:Minecraftia">Lorem Ipsum</tspan></tspan></text>
    <text
       xml:space="preserve"
       id="text1097"
       style="font-size:19.05px;line-height:1.25;font-family:Helvetica;-inkscape-font-specification:'Helvetica, Normal';letter-spacing:0px;word-spacing:0px;white-space:pre;shape-inside:url(#rect1099);fill:#e6e6e6;"
       transform="matrix(1.1819471,0,0,1.1819471,22.457097,40.294992)"><tspan
         x="-114.31055"
         y="-120.53789"><tspan
           style="font-style:normal;font-variant:normal;font-weight:normal;font-stretch:normal;font-size:19.05px;font-family:Minecraftia;-inkscape-font-specification:Minecraftia;fill:#e6e6e6">@</tspan></tspan></text>
  </g>
</svg>
